<?xml version="1.0" encoding="UTF-8"?>
<!DOCTYPE svg PUBLIC "-//W3C//DTD SVG 1.1//EN" "http://www.w3.org/Graphics/SVG/1.1/DTD/svg11.dtd">
<!-- Creator: CorelDRAW 2020 (64-Bit) -->
<?xml-stylesheet href="lamborghini_huracan.css" type="text/css"?>
<svg xmlns="http://www.w3.org/2000/svg" xml:space="preserve" width="150px" height="75px" version="1.1" style="shape-rendering:geometricPrecision; text-rendering:geometricPrecision; image-rendering:optimizeQuality; fill-rule:evenodd; clip-rule:evenodd"
viewBox="0 0 34.64 17.28"
 xmlns:xlink="http://www.w3.org/1999/xlink"
 xmlns:xodm="http://www.corel.com/coreldraw/odm/2003">
 <defs>
     <mask id="id0">
       <linearGradient id="id1" gradientUnits="userSpaceOnUse" x1="34.56" y1="16.38" x2="0.94" y2="16.38">
        <stop offset="0" style="stop-opacity:1; stop-color:white"/>
        <stop offset="0.909804" style="stop-opacity:0.501961; stop-color:white"/>
        <stop offset="1" style="stop-opacity:0; stop-color:white"/>
       </linearGradient>
      <rect style="fill:url(#id1)" x="0.4" y="16.12" width="17.11" height="0.67"/>
     </mask>
     <mask id="id2">
       <linearGradient id="id3" gradientUnits="userSpaceOnUse" x1="0.47" y1="16.38" x2="34.09" y2="16.38">
        <stop offset="0" style="stop-opacity:1; stop-color:white"/>
        <stop offset="0.909804" style="stop-opacity:0.501961; stop-color:white"/>
        <stop offset="1" style="stop-opacity:0; stop-color:white"/>
       </linearGradient>
      <rect style="fill:url(#id3)" x="17.51" y="16.12" width="17.12" height="0.67"/>
     </mask>
    <mask id="id4">
      <linearGradient id="id5" gradientUnits="userSpaceOnUse" x1="16.54" y1="10.49" x2="16.54" y2="17.39">
       <stop offset="0" style="stop-opacity:1; stop-color:white"/>
       <stop offset="1" style="stop-opacity:0; stop-color:white"/>
      </linearGradient>
     <rect style="fill:url(#id5)" x="2.74" y="11.03" width="27.06" height="5.57"/>
    </mask>
      <mask id="id6">
        <linearGradient id="id7" gradientUnits="userSpaceOnUse" x1="5.65" y1="12.77" x2="5.74" y2="20.41">
         <stop offset="0" style="stop-opacity:1; stop-color:white"/>
         <stop offset="1" style="stop-opacity:0; stop-color:white"/>
        </linearGradient>
       <rect style="fill:url(#id7)" x="2.39" y="9.82" width="6.56" height="5.26"/>
      </mask>
      <mask id="id8">
        <linearGradient id="id9" gradientUnits="userSpaceOnUse" x1="26.95" y1="11.84" x2="26.85" y2="22.93">
         <stop offset="0" style="stop-opacity:1; stop-color:white"/>
         <stop offset="1" style="stop-opacity:0; stop-color:white"/>
        </linearGradient>
       <rect style="fill:url(#id9)" x="23.5" y="10.13" width="6.79" height="5.04"/>
      </mask>
     <mask id="id10">
       <linearGradient id="id11" gradientUnits="userSpaceOnUse" x1="22.71" y1="11.51" x2="12.7" y2="11.58">
        <stop offset="0" style="stop-opacity:1; stop-color:white"/>
        <stop offset="1" style="stop-opacity:1; stop-color:white"/>
       </linearGradient>
      <rect style="fill:url(#id11)" x="0.09" y="7.77" width="34.37" height="7.27"/>
     </mask>
      <mask id="id12">
        <linearGradient id="id13" gradientUnits="userSpaceOnUse" x1="0.22" y1="12.82" x2="0.23" y2="13.62">
         <stop offset="0" style="stop-opacity:1; stop-color:white"/>
         <stop offset="1" style="stop-opacity:0; stop-color:white"/>
        </linearGradient>
       <rect style="fill:url(#id13)" x="0.24" y="13.12" width="1.71" height="1.17"/>
      </mask>
     <mask id="id14">
       <linearGradient id="id15" gradientUnits="userSpaceOnUse" x1="5.68" y1="13.67" x2="5.86" y2="7.67">
        <stop offset="0" style="stop-opacity:0.380392; stop-color:white"/>
        <stop offset="1" style="stop-opacity:1; stop-color:white"/>
       </linearGradient>
      <rect style="fill:url(#id15)" x="2.24" y="10.07" width="6.84" height="4.28"/>
     </mask>
      <mask id="id16">
        <linearGradient id="id17" gradientUnits="userSpaceOnUse" x1="26.75" y1="9.27" x2="26.71" y2="15.05">
         <stop offset="0" style="stop-opacity:1; stop-color:white"/>
         <stop offset="1" style="stop-opacity:0; stop-color:white"/>
        </linearGradient>
       <rect style="fill:url(#id17)" x="23.57" y="10.31" width="6.54" height="4.73"/>
      </mask>
      <mask id="id18">
        <linearGradient id="id19" gradientUnits="userSpaceOnUse" x1="1.52" y1="8.33" x2="1.08" y2="8.85">
         <stop offset="0" style="stop-opacity:1; stop-color:white"/>
         <stop offset="1" style="stop-opacity:0; stop-color:white"/>
        </linearGradient>
       <rect style="fill:url(#id19)" x="0.8" y="8.64" width="1.21" height="0.4"/>
      </mask>
      <mask id="id20">
        <linearGradient id="id21" gradientUnits="userSpaceOnUse" x1="1.47" y1="6.72" x2="8.23" y2="10.25">
         <stop offset="0" style="stop-opacity:1; stop-color:white"/>
         <stop offset="1" style="stop-opacity:0; stop-color:white"/>
        </linearGradient>
       <rect style="fill:url(#id21)" x="2.01" y="8.87" width="10.54" height="2.37"/>
      </mask>
      <mask id="id22">
        <linearGradient id="id23" gradientUnits="userSpaceOnUse" x1="10.5" y1="9.91" x2="11.62" y2="16.19">
         <stop offset="0" style="stop-opacity:0; stop-color:white"/>
         <stop offset="0.160784" style="stop-opacity:0.27451; stop-color:white"/>
         <stop offset="0.239216" style="stop-opacity:0.54902; stop-color:white"/>
         <stop offset="1" style="stop-opacity:0; stop-color:white"/>
        </linearGradient>
       <rect style="fill:url(#id23)" x="6.61" y="9.56" width="7.24" height="4.25"/>
      </mask>
      <mask id="id24">
        <linearGradient id="id25" gradientUnits="userSpaceOnUse" x1="4.91" y1="11.27" x2="1.42" y2="9.38">
         <stop offset="0" style="stop-opacity:1; stop-color:white"/>
         <stop offset="1" style="stop-opacity:0; stop-color:white"/>
        </linearGradient>
       <rect style="fill:url(#id25)" x="1.41" y="9.24" width="3.18" height="2.1"/>
      </mask>
      <mask id="id26">
        <linearGradient id="id27" gradientUnits="userSpaceOnUse" x1="0.18" y1="8.62" x2="1.55" y2="9.42">
         <stop offset="0" style="stop-opacity:1; stop-color:white"/>
         <stop offset="1" style="stop-opacity:0; stop-color:white"/>
        </linearGradient>
       <rect style="fill:url(#id27)" x="0.82" y="9.01" width="0.84" height="0.38"/>
      </mask>
      <mask id="id28">
        <linearGradient id="id29" gradientUnits="userSpaceOnUse" x1="0.79" y1="8.55" x2="0.8" y2="8.94">
         <stop offset="0" style="stop-opacity:1; stop-color:white"/>
         <stop offset="1" style="stop-opacity:0; stop-color:white"/>
        </linearGradient>
       <rect style="fill:url(#id29)" x="0.72" y="8.66" width="0.22" height="0.49"/>
      </mask>
      <mask id="id30">
        <linearGradient id="id31" gradientUnits="userSpaceOnUse" x1="2.96" y1="10.76" x2="1.14" y2="10.72">
         <stop offset="0" style="stop-opacity:1; stop-color:white"/>
         <stop offset="1" style="stop-opacity:0; stop-color:white"/>
        </linearGradient>
       <rect style="fill:url(#id31)" x="0.92" y="10.64" width="1.61" height="0.22"/>
      </mask>
      <mask id="id32">
        <linearGradient id="id33" gradientUnits="userSpaceOnUse" x1="3.87" y1="11.83" x2="1.17" y2="11.37">
         <stop offset="0" style="stop-opacity:1; stop-color:white"/>
         <stop offset="1" style="stop-opacity:0; stop-color:white"/>
        </linearGradient>
       <rect style="fill:url(#id33)" x="0.9" y="10.78" width="2.06" height="2.38"/>
      </mask>
      <mask id="id34">
        <linearGradient id="id35" gradientUnits="userSpaceOnUse" x1="13.27" y1="13.32" x2="10.93" y2="13.49">
         <stop offset="0" style="stop-opacity:1; stop-color:white"/>
         <stop offset="1" style="stop-opacity:0; stop-color:white"/>
        </linearGradient>
       <rect style="fill:url(#id35)" x="9.08" y="13.11" width="3.91" height="0.7"/>
      </mask>
      <mask id="id36">
        <linearGradient id="id37" gradientUnits="userSpaceOnUse" x1="10.42" y1="12.13" x2="10.09" y2="14.28">
         <stop offset="0" style="stop-opacity:1; stop-color:white"/>
         <stop offset="1" style="stop-opacity:0; stop-color:white"/>
        </linearGradient>
       <rect style="fill:url(#id37)" x="8.79" y="13.5" width="3.25" height="0.89"/>
      </mask>
      <mask id="id38">
        <linearGradient id="id39" gradientUnits="userSpaceOnUse" x1="11.36" y1="14.9" x2="11.4" y2="14.08">
         <stop offset="0" style="stop-opacity:1; stop-color:white"/>
         <stop offset="1" style="stop-opacity:0; stop-color:white"/>
        </linearGradient>
       <rect style="fill:url(#id39)" x="8.78" y="14.34" width="15.15" height="0.68"/>
      </mask>
      <mask id="id40">
        <linearGradient id="id41" gradientUnits="userSpaceOnUse" x1="13.39" y1="12.56" x2="13.58" y2="14.01">
         <stop offset="0" style="stop-opacity:1; stop-color:white"/>
         <stop offset="1" style="stop-opacity:0; stop-color:white"/>
        </linearGradient>
       <rect style="fill:url(#id41)" x="12.93" y="13.12" width="1.76" height="0.99"/>
      </mask>
      <mask id="id42">
        <linearGradient id="id43" gradientUnits="userSpaceOnUse" x1="17.85" y1="13.37" x2="17.82" y2="14.67">
         <stop offset="0" style="stop-opacity:1; stop-color:white"/>
         <stop offset="1" style="stop-opacity:0; stop-color:white"/>
        </linearGradient>
       <rect style="fill:url(#id43)" x="13.8" y="14.04" width="10.17" height="0.92"/>
      </mask>
      <mask id="id44">
        <linearGradient id="id45" gradientUnits="userSpaceOnUse" x1="17.24" y1="14.12" x2="17.18" y2="14.88">
         <stop offset="0" style="stop-opacity:1; stop-color:white"/>
         <stop offset="1" style="stop-opacity:0; stop-color:white"/>
        </linearGradient>
       <rect style="fill:url(#id45)" x="11.4" y="14.31" width="12.51" height="0.63"/>
      </mask>
      <mask id="id46">
        <linearGradient id="id47" gradientUnits="userSpaceOnUse" x1="9.27" y1="7.87" x2="9.78" y2="8.86">
         <stop offset="0" style="stop-opacity:1; stop-color:white"/>
         <stop offset="1" style="stop-opacity:0; stop-color:white"/>
        </linearGradient>
       <rect style="fill:url(#id47)" x="8.26" y="8.08" width="2.31" height="0.85"/>
      </mask>
      <mask id="id48">
        <linearGradient id="id49" gradientUnits="userSpaceOnUse" x1="12.79" y1="6.48" x2="11.12" y2="10.41">
         <stop offset="0" style="stop-opacity:1; stop-color:white"/>
         <stop offset="1" style="stop-opacity:0; stop-color:white"/>
        </linearGradient>
       <rect style="fill:url(#id49)" x="6.31" y="7.76" width="9.08" height="1.81"/>
      </mask>
      <mask id="id50">
        <linearGradient id="id51" gradientUnits="userSpaceOnUse" x1="11.44" y1="11.7" x2="11.51" y2="9.43">
         <stop offset="0" style="stop-opacity:1; stop-color:white"/>
         <stop offset="0.811765" style="stop-opacity:0.529412; stop-color:white"/>
         <stop offset="1" style="stop-opacity:0; stop-color:white"/>
        </linearGradient>
       <rect style="fill:url(#id51)" x="9.11" y="8.81" width="4.8" height="1.23"/>
      </mask>
      <mask id="id52">
        <linearGradient id="id53" gradientUnits="userSpaceOnUse" x1="19.32" y1="8.8" x2="18.07" y2="12.24">
         <stop offset="0" style="stop-opacity:1; stop-color:white"/>
         <stop offset="1" style="stop-opacity:0; stop-color:white"/>
        </linearGradient>
       <rect style="fill:url(#id53)" x="12.49" y="9.43" width="10.89" height="1.8"/>
      </mask>
      <mask id="id54">
        <linearGradient id="id55" gradientUnits="userSpaceOnUse" x1="23.38" y1="10.56" x2="25.26" y2="9.73">
         <stop offset="0" style="stop-opacity:1; stop-color:white"/>
         <stop offset="1" style="stop-opacity:0; stop-color:white"/>
        </linearGradient>
       <rect style="fill:url(#id55)" x="23.19" y="9.63" width="2.38" height="0.99"/>
      </mask>
      <mask id="id56">
        <linearGradient id="id57" gradientUnits="userSpaceOnUse" x1="29.63" y1="12.37" x2="31.46" y2="10.28">
         <stop offset="0" style="stop-opacity:0; stop-color:white"/>
         <stop offset="0.321569" style="stop-opacity:0.462745; stop-color:white"/>
         <stop offset="1" style="stop-opacity:0.921569; stop-color:white"/>
        </linearGradient>
       <rect style="fill:url(#id57)" x="26.27" y="10.2" width="6.67" height="2.46"/>
      </mask>
      <mask id="id58">
        <linearGradient id="id59" gradientUnits="userSpaceOnUse" x1="34.74" y1="14.6" x2="30.64" y2="13.11">
         <stop offset="0" style="stop-opacity:1; stop-color:white"/>
         <stop offset="1" style="stop-opacity:0.129412; stop-color:white"/>
        </linearGradient>
       <rect style="fill:url(#id59)" x="29.7" y="12.19" width="3.09" height="2.36"/>
      </mask>
      <mask id="id60">
        <linearGradient id="id61" gradientUnits="userSpaceOnUse" x1="32.08" y1="12.06" x2="33.17" y2="12.53">
         <stop offset="0" style="stop-opacity:1; stop-color:white"/>
         <stop offset="1" style="stop-opacity:0; stop-color:white"/>
        </linearGradient>
       <rect style="fill:url(#id61)" x="32.11" y="12.01" width="1.98" height="1.05"/>
      </mask>
      <mask id="id62">
        <linearGradient id="id63" gradientUnits="userSpaceOnUse" x1="33.7" y1="12.52" x2="32.96" y2="13.07">
         <stop offset="0" style="stop-opacity:1; stop-color:white"/>
         <stop offset="1" style="stop-opacity:0; stop-color:white"/>
        </linearGradient>
       <rect style="fill:url(#id63)" x="32.53" y="12.66" width="1.44" height="0.59"/>
      </mask>
      <mask id="id64">
        <linearGradient id="id65" gradientUnits="userSpaceOnUse" x1="34.03" y1="14.22" x2="32.55" y2="14.15">
         <stop offset="0" style="stop-opacity:1; stop-color:white"/>
         <stop offset="1" style="stop-opacity:0; stop-color:white"/>
        </linearGradient>
       <rect style="fill:url(#id65)" x="32.1" y="13.15" width="1.85" height="1.5"/>
      </mask>
      <mask id="id66">
        <linearGradient id="id67" gradientUnits="userSpaceOnUse" x1="32.52" y1="14.95" x2="32.38" y2="14.45">
         <stop offset="0" style="stop-opacity:1; stop-color:white"/>
         <stop offset="1" style="stop-opacity:0; stop-color:white"/>
        </linearGradient>
       <rect style="fill:url(#id67)" x="31.94" y="14.53" width="1.06" height="0.17"/>
      </mask>
      <mask id="id68">
        <linearGradient id="id69" gradientUnits="userSpaceOnUse" x1="32.35" y1="11.66" x2="34.26" y2="12.8">
         <stop offset="0" style="stop-opacity:1; stop-color:white"/>
         <stop offset="1" style="stop-opacity:0; stop-color:white"/>
        </linearGradient>
       <rect style="fill:url(#id69)" x="32.74" y="11.81" width="1.68" height="1.25"/>
      </mask>
      <mask id="id70">
        <linearGradient id="id71" gradientUnits="userSpaceOnUse" x1="22.15" y1="9.65" x2="22.44" y2="11.8">
         <stop offset="0" style="stop-opacity:1; stop-color:white"/>
         <stop offset="1" style="stop-opacity:0; stop-color:white"/>
        </linearGradient>
       <rect style="fill:url(#id71)" x="20.67" y="9.67" width="7.83" height="3.34"/>
      </mask>
      <mask id="id72">
        <linearGradient id="id73" gradientUnits="userSpaceOnUse" x1="18.01" y1="7.5" x2="17.97" y2="8.47">
         <stop offset="0" style="stop-opacity:0.8; stop-color:white"/>
         <stop offset="0.921569" style="stop-opacity:0.4; stop-color:white"/>
         <stop offset="1" style="stop-opacity:0; stop-color:white"/>
        </linearGradient>
       <rect style="fill:url(#id73)" x="14.96" y="7.71" width="7.45" height="0.98"/>
      </mask>
      <mask id="id74">
        <linearGradient id="id75" gradientUnits="userSpaceOnUse" x1="17.94" y1="9.09" x2="17.42" y2="14.15">
         <stop offset="0" style="stop-opacity:1; stop-color:white"/>
         <stop offset="1" style="stop-opacity:0; stop-color:white"/>
        </linearGradient>
       <rect style="fill:url(#id75)" x="13.85" y="13.19" width="10.03" height="1.5"/>
      </mask>
      <mask id="id76">
        <linearGradient id="id77" gradientUnits="userSpaceOnUse" x1="10.88" y1="8.45" x2="11.29" y2="10.18">
         <stop offset="0" style="stop-opacity:0.470588; stop-color:white"/>
         <stop offset="0.568627" style="stop-opacity:0.109804; stop-color:white"/>
         <stop offset="1" style="stop-opacity:0.109804; stop-color:white"/>
        </linearGradient>
       <rect style="fill:url(#id77)" x="9.11" y="8.81" width="4.8" height="1.23"/>
      </mask>
      <mask id="id78">
        <linearGradient id="id79" gradientUnits="userSpaceOnUse" x1="24.47" y1="9.79" x2="22.37" y2="9.68">
         <stop offset="0" style="stop-opacity:1; stop-color:white"/>
         <stop offset="1" style="stop-opacity:0; stop-color:white"/>
        </linearGradient>
       <rect style="fill:url(#id79)" x="23.09" y="9.31" width="1.44" height="0.74"/>
      </mask>
      <mask id="id80">
        <linearGradient id="id81" gradientUnits="userSpaceOnUse" x1="19.92" y1="10.03" x2="19.43" y2="14.82">
         <stop offset="0" style="stop-opacity:0; stop-color:white"/>
         <stop offset="0.192157" style="stop-opacity:0.298039; stop-color:white"/>
         <stop offset="0.309804" style="stop-opacity:0.596078; stop-color:white"/>
         <stop offset="1" style="stop-opacity:0; stop-color:white"/>
        </linearGradient>
       <rect style="fill:url(#id81)" x="12.55" y="10.06" width="12.84" height="4.35"/>
      </mask>
      <mask id="id82">
        <linearGradient id="id83" gradientUnits="userSpaceOnUse" x1="13.99" y1="10.35" x2="13.94" y2="10.75">
         <stop offset="0" style="stop-opacity:1; stop-color:white"/>
         <stop offset="1" style="stop-opacity:0; stop-color:white"/>
        </linearGradient>
       <rect style="fill:url(#id83)" x="13" y="10.46" width="2.02" height="0.45"/>
      </mask>
      <mask id="id84">
        <linearGradient id="id85" gradientUnits="userSpaceOnUse" x1="14.03" y1="11.26" x2="14.08" y2="10.83">
         <stop offset="0" style="stop-opacity:1; stop-color:white"/>
         <stop offset="1" style="stop-opacity:0; stop-color:white"/>
        </linearGradient>
       <rect style="fill:url(#id85)" x="13" y="10.67" width="2.02" height="0.43"/>
      </mask>
      <mask id="id86">
        <linearGradient id="id87" gradientUnits="userSpaceOnUse" x1="10.47" y1="8.87" x2="10.1" y2="9.92">
         <stop offset="0" style="stop-opacity:1; stop-color:white"/>
         <stop offset="1" style="stop-opacity:0; stop-color:white"/>
        </linearGradient>
       <rect style="fill:url(#id87)" x="8.15" y="8.82" width="4.55" height="1.69"/>
      </mask>
      <mask id="id88">
        <linearGradient id="id89" gradientUnits="userSpaceOnUse" x1="9.75" y1="9" x2="9.83" y2="9.22">
         <stop offset="0" style="stop-opacity:1; stop-color:white"/>
         <stop offset="1" style="stop-opacity:0; stop-color:white"/>
        </linearGradient>
       <rect style="fill:url(#id89)" x="9.35" y="8.88" width="1.18" height="0.4"/>
      </mask>
      <mask id="id90">
        <linearGradient id="id91" gradientUnits="userSpaceOnUse" x1="13.3" y1="15.07" x2="12.47" y2="13.84">
         <stop offset="0" style="stop-opacity:1; stop-color:white"/>
         <stop offset="1" style="stop-opacity:0; stop-color:white"/>
        </linearGradient>
       <rect style="fill:url(#id91)" x="11.82" y="13.87" width="1.86" height="0.25"/>
      </mask>
      <mask id="id92">
        <linearGradient id="id93" gradientUnits="userSpaceOnUse" x1="38.8" y1="14.77" x2="29.13" y2="15.12">
         <stop offset="0" style="stop-opacity:1; stop-color:white"/>
         <stop offset="1" style="stop-opacity:0; stop-color:white"/>
        </linearGradient>
       <rect style="fill:url(#id93)" x="29.66" y="14.68" width="4.98" height="0.51"/>
      </mask>
      <mask id="id94">
        <linearGradient id="id95" gradientUnits="userSpaceOnUse" x1="10.76" y1="13.86" x2="10.73" y2="15.02">
         <stop offset="0" style="stop-opacity:1; stop-color:white"/>
         <stop offset="1" style="stop-opacity:0; stop-color:white"/>
        </linearGradient>
       <rect style="fill:url(#id95)" x="8.78" y="14.7" width="8.15" height="0.38"/>
      </mask>
      <mask id="id96">
        <linearGradient id="id97" gradientUnits="userSpaceOnUse" x1="0.89" y1="9.59" x2="1.42" y2="10.12">
         <stop offset="0" style="stop-opacity:1; stop-color:white"/>
         <stop offset="1" style="stop-opacity:0; stop-color:white"/>
        </linearGradient>
       <rect style="fill:url(#id97)" x="0.93" y="9.81" width="0.66" height="0.33"/>
      </mask>
      <mask id="id98">
        <linearGradient id="id99" gradientUnits="userSpaceOnUse" x1="1.32" y1="11.84" x2="0.84" y2="12.78">
         <stop offset="0" style="stop-opacity:1; stop-color:white"/>
         <stop offset="1" style="stop-opacity:0; stop-color:white"/>
        </linearGradient>
       <rect style="fill:url(#id99)" x="0.67" y="11.84" width="0.96" height="0.53"/>
      </mask>
      <mask id="id100">
        <linearGradient id="id101" gradientUnits="userSpaceOnUse" x1="1.13" y1="11.55" x2="1.45" y2="12.44">
         <stop offset="0" style="stop-opacity:1; stop-color:white"/>
         <stop offset="1" style="stop-opacity:0; stop-color:white"/>
        </linearGradient>
       <rect style="fill:url(#id101)" x="0.96" y="11.58" width="0.56" height="0.55"/>
      </mask>
      <mask id="id102">
        <linearGradient id="id103" gradientUnits="userSpaceOnUse" x1="0.57" y1="10.1" x2="1.29" y2="12.11">
         <stop offset="0" style="stop-opacity:1; stop-color:white"/>
         <stop offset="1" style="stop-opacity:0; stop-color:white"/>
        </linearGradient>
       <rect style="fill:url(#id103)" x="0.59" y="10.7" width="0.71" height="0.99"/>
      </mask>
      <mask id="id104">
        <linearGradient id="id105" gradientUnits="userSpaceOnUse" x1="0.73" y1="10.71" x2="0.71" y2="10.84">
         <stop offset="0" style="stop-opacity:1; stop-color:white"/>
         <stop offset="1" style="stop-opacity:0; stop-color:white"/>
        </linearGradient>
       <rect style="fill:url(#id105)" x="0.59" y="10.75" width="0.39" height="0.12"/>
      </mask>
      <mask id="id106">
        <linearGradient id="id107" gradientUnits="userSpaceOnUse" x1="1.91" y1="12.38" x2="0.29" y2="12.07">
         <stop offset="0" style="stop-opacity:1; stop-color:white"/>
         <stop offset="1" style="stop-opacity:0; stop-color:white"/>
        </linearGradient>
       <rect style="fill:url(#id107)" x="0.67" y="11.99" width="0.98" height="0.42"/>
      </mask>
      <mask id="id108">
        <linearGradient id="id109" gradientUnits="userSpaceOnUse" x1="1.69" y1="12.1" x2="0.94" y2="12">
         <stop offset="0" style="stop-opacity:1; stop-color:white"/>
         <stop offset="1" style="stop-opacity:0; stop-color:white"/>
        </linearGradient>
       <rect style="fill:url(#id109)" x="1.09" y="11.93" width="0.45" height="0.25"/>
      </mask>
      <mask id="id110">
        <linearGradient id="id111" gradientUnits="userSpaceOnUse" x1="1.2" y1="12.27" x2="0.17" y2="13.13">
         <stop offset="0" style="stop-opacity:1; stop-color:white"/>
         <stop offset="1" style="stop-opacity:0; stop-color:white"/>
        </linearGradient>
       <rect style="fill:url(#id111)" x="0.18" y="12.48" width="2.08" height="2.14"/>
      </mask>
     <mask id="id112">
       <linearGradient id="id113" gradientUnits="userSpaceOnUse" x1="18.32" y1="7.33" x2="17.93" y2="11.47">
        <stop offset="0" style="stop-opacity:1; stop-color:white"/>
        <stop offset="1" style="stop-opacity:0; stop-color:white"/>
       </linearGradient>
      <rect style="fill:url(#id113)" x="14.47" y="7.69" width="10.84" height="2.54"/>
     </mask>
      <mask id="id114">
        <linearGradient id="id115" gradientUnits="userSpaceOnUse" x1="21.12" y1="10.28" x2="20.94" y2="9.69">
         <stop offset="0" style="stop-opacity:1; stop-color:white"/>
         <stop offset="1" style="stop-opacity:0.109804; stop-color:white"/>
        </linearGradient>
       <rect style="fill:url(#id115)" x="20.77" y="9.53" width="0.53" height="0.58"/>
      </mask>
      <mask id="id116">
        <linearGradient id="id117" gradientUnits="userSpaceOnUse" x1="21.11" y1="9.11" x2="21.08" y2="9.53">
         <stop offset="0" style="stop-opacity:1; stop-color:white"/>
         <stop offset="1" style="stop-opacity:0; stop-color:white"/>
        </linearGradient>
       <rect style="fill:url(#id117)" x="20.78" y="9.19" width="0.55" height="0.34"/>
      </mask>
      <mask id="id118">
        <linearGradient id="id119" gradientUnits="userSpaceOnUse" x1="20.87" y1="9.21" x2="20.97" y2="9.87">
         <stop offset="0" style="stop-opacity:1; stop-color:white"/>
         <stop offset="1" style="stop-opacity:0.109804; stop-color:white"/>
        </linearGradient>
       <rect style="fill:url(#id119)" x="20.77" y="9.53" width="0.53" height="0.58"/>
      </mask>
      <mask id="id120">
        <linearGradient id="id121" gradientUnits="userSpaceOnUse" x1="21.66" y1="9.25" x2="21.66" y2="9.63">
         <stop offset="0" style="stop-opacity:1; stop-color:white"/>
         <stop offset="1" style="stop-opacity:0; stop-color:white"/>
        </linearGradient>
       <rect style="fill:url(#id121)" x="21.09" y="9.29" width="1.45" height="0.39"/>
      </mask>
      <mask id="id122">
        <linearGradient id="id123" gradientUnits="userSpaceOnUse" x1="21.62" y1="10.43" x2="21.62" y2="9.73">
         <stop offset="0" style="stop-opacity:1; stop-color:white"/>
         <stop offset="1" style="stop-opacity:0; stop-color:white"/>
        </linearGradient>
       <rect style="fill:url(#id123)" x="21.1" y="9.66" width="1.44" height="0.45"/>
      </mask>
      <mask id="id124">
        <linearGradient id="id125" gradientUnits="userSpaceOnUse" x1="22.92" y1="9.19" x2="22.71" y2="10.3">
         <stop offset="0" style="stop-opacity:1; stop-color:white"/>
         <stop offset="1" style="stop-opacity:0; stop-color:white"/>
        </linearGradient>
       <rect style="fill:url(#id125)" x="21.32" y="9.66" width="2.04" height="0.56"/>
      </mask>
      <mask id="id126">
        <linearGradient id="id127" gradientUnits="userSpaceOnUse" x1="20.57" y1="8.78" x2="22.87" y2="9.52">
         <stop offset="0" style="stop-opacity:1; stop-color:white"/>
         <stop offset="1" style="stop-opacity:0; stop-color:white"/>
        </linearGradient>
       <rect style="fill:url(#id127)" x="21.15" y="9.2" width="2.17" height="0.49"/>
      </mask>
      <mask id="id128">
        <linearGradient id="id129" gradientUnits="userSpaceOnUse" x1="20.96" y1="11.03" x2="21.98" y2="10.19">
         <stop offset="0" style="stop-opacity:1; stop-color:white"/>
         <stop offset="1" style="stop-opacity:0; stop-color:white"/>
        </linearGradient>
       <rect style="fill:url(#id129)" x="21.16" y="10.24" width="0.9" height="0.75"/>
      </mask>
      <mask id="id130">
        <linearGradient id="id131" gradientUnits="userSpaceOnUse" x1="22.43" y1="11.59" x2="21.99" y2="10.1">
         <stop offset="0" style="stop-opacity:1; stop-color:white"/>
         <stop offset="1" style="stop-opacity:0; stop-color:white"/>
        </linearGradient>
       <rect style="fill:url(#id131)" x="21.23" y="10.19" width="1.3" height="0.84"/>
      </mask>
 <linearGradient id="id132" gradientUnits="userSpaceOnUse" x1="1.22" y1="12.95" x2="2.27" y2="13.84">
  <stop offset="0" style="stop-opacity:1; stop-color:#282829"/>
  <stop offset="1" style="stop-opacity:1; stop-color:#24323B"/>
 </linearGradient>
 <linearGradient id="id133" gradientUnits="userSpaceOnUse" x1="1.82" y1="14.68" x2="2.37" y2="13.57">
  <stop offset="0" style="stop-opacity:1; stop-color:#435664"/>
  <stop offset="1" style="stop-opacity:1; stop-color:#636A6B"/>
 </linearGradient>
 <linearGradient id="id134" gradientUnits="userSpaceOnUse" x1="0.83" y1="10.35" x2="1.45" y2="10.34">
  <stop offset="0" style="stop-opacity:1; stop-color:#282829"/>
  <stop offset="1" style="stop-opacity:1; stop-color:#454141"/>
 </linearGradient>
 <linearGradient id="id135" gradientUnits="userSpaceOnUse" x1="22.83" y1="10.15" x2="22.32" y2="8.76">
  <stop offset="0" style="stop-opacity:1; stop-color:#282829"/>
  <stop offset="1" style="stop-opacity:1; stop-color:#919191"/>
 </linearGradient>
 <linearGradient id="id136" gradientUnits="userSpaceOnUse" x1="1.04" y1="10.48" x2="2.18" y2="9.57">
  <stop offset="0" style="stop-opacity:1; stop-color:#302F2F"/>
  <stop offset="0.160784" style="stop-opacity:1; stop-color:#5A3432"/>
  <stop offset="0.34902" style="stop-opacity:1; stop-color:#853A35"/>
  <stop offset="0.560784" style="stop-opacity:1; stop-color:#A54E4B"/>
  <stop offset="0.639216" style="stop-opacity:1; stop-color:#C87675"/>
  <stop offset="1" style="stop-opacity:1; stop-color:#EB9E9F"/>
 </linearGradient>
 <linearGradient id="id137" gradientUnits="userSpaceOnUse" x1="19.94" y1="8.41" x2="26.51" y2="8.57">
  <stop offset="0" style="stop-opacity:1; stop-color:#282829"/>
  <stop offset="0.701961" style="stop-opacity:1; stop-color:#787677"/>
  <stop offset="1" style="stop-opacity:1; stop-color:#C8C5C5"/>
 </linearGradient>
 <linearGradient id="id138" gradientUnits="userSpaceOnUse" x1="15.08" y1="9.37" x2="15.45" y2="6.71">
  <stop offset="0" style="stop-opacity:1; stop-color:#282829"/>
  <stop offset="0.788235" style="stop-opacity:1; stop-color:#343535"/>
  <stop offset="1" style="stop-opacity:1; stop-color:#414242"/>
 </linearGradient>
 <linearGradient id="id139" gradientUnits="userSpaceOnUse" x1="20.23" y1="9.98" x2="21.11" y2="8.86">
  <stop offset="0" style="stop-opacity:1; stop-color:#373435"/>
  <stop offset="0.486275" style="stop-opacity:1; stop-color:#343232"/>
  <stop offset="0.639216" style="stop-opacity:1; stop-color:#302F2F"/>
  <stop offset="0.870588" style="stop-opacity:1; stop-color:#393838"/>
  <stop offset="1" style="stop-opacity:1; stop-color:#424242"/>
 </linearGradient>
 <linearGradient id="id140" gradientUnits="userSpaceOnUse" x1="26.73" y1="16.58" x2="26.73" y2="10.45">
  <stop offset="0" style="stop-opacity:0.74902; stop-color:#282929"/>
  <stop offset="0.0196078" style="stop-opacity:0.376471; stop-color:#2F3030"/>
  <stop offset="1" style="stop-opacity:0; stop-color:#373838"/>
 </linearGradient>
 <linearGradient id="id141" gradientUnits="userSpaceOnUse" xlink:href="#id140" x1="5.61" y1="16.6" x2="5.61" y2="10.47">
 </linearGradient>
 <radialGradient id="id142" gradientUnits="userSpaceOnUse" gradientTransform="matrix(1.02621 -0 -0 1.02619 0 0)" cx="5.66" cy="13.49" r="275.52" fx="5.66" fy="13.49">
  <stop offset="0" style="stop-opacity:1; stop-color:#525252"/>
  <stop offset="0.588235" style="stop-opacity:1; stop-color:#353536"/>
  <stop offset="0.709804" style="stop-opacity:1; stop-color:#3F4040"/>
  <stop offset="0.878431" style="stop-opacity:1; stop-color:#494A4A"/>
  <stop offset="0.929412" style="stop-opacity:1; stop-color:#383939"/>
  <stop offset="1" style="stop-opacity:1; stop-color:#282829"/>
 </radialGradient>
 <radialGradient id="id143" gradientUnits="userSpaceOnUse" gradientTransform="matrix(1.04162 -0 -0 1.04167 0 -1)" cx="5.8" cy="13.47" r="188.92" fx="5.8" fy="13.47">
  <stop offset="0" style="stop-opacity:1; stop-color:#282829"/>
  <stop offset="0.831373" style="stop-opacity:1; stop-color:#2E2E2F"/>
  <stop offset="0.909804" style="stop-opacity:1; stop-color:#333434"/>
  <stop offset="0.980392" style="stop-opacity:1; stop-color:#404141"/>
  <stop offset="1" style="stop-opacity:1; stop-color:#4D4D4D"/>
 </radialGradient>
 <radialGradient id="id144" gradientUnits="userSpaceOnUse" gradientTransform="matrix(1.02621 -0 -0 1.02623 -1 0)" xlink:href="#id142" cx="26.78" cy="13.48" r="275.52" fx="26.78" fy="13.48">
 </radialGradient>
 <radialGradient id="id145" gradientUnits="userSpaceOnUse" gradientTransform="matrix(1.04169 -0 -0 1.0416 -1 -1)" xlink:href="#id143" cx="26.92" cy="13.46" r="188.92" fx="26.92" fy="13.46">
 </radialGradient>
 </defs>
 <g id="lmb_hrcn">
  <metadata id="CorelCorpID_0Corel-Layer"/>
  <g id="lamborghini_huracan">
   <rect id="container" class="lmb_hrc_fil1" width="34.55" height="17.28"/>
   <g id="shadow_on_asphalt">
    <polygon class="lmb_hrc_fil2" style="mask:url(#id0)" points="0.4,16.12 17.51,16.12 17.51,16.79 0.4,16.79 "/>
    <polygon class="lmb_hrc_fil2" style="mask:url(#id2)" points="34.63,16.12 17.51,16.12 17.51,16.79 34.63,16.79 "/>
   </g>
   <path id="shadow_from_body" class="lmb_hrc_fil2" style="mask:url(#id4)" d="M5.52 16.6l21.49 0c1.54,0 2.79,-1.26 2.79,-2.79l0 -2.78 -27.06 0 0 2.78c0,1.53 1.25,2.79 2.78,2.79z"/>
   <g id="car">
    <g id="wheel_body_shadow">
     <path class="lmb_hrc_fil3" style="mask:url(#id6)" d="M8.79 15.08l-6.04 -0.23c-1.11,-2.46 0.41,-5.37 3.44,-5 2.12,0.26 3.18,2.56 2.6,5.23z"/>
     <path class="lmb_hrc_fil3" style="mask:url(#id8)" d="M23.99 15.09l5.68 0.08c0,0 0.68,-0.52 0.61,-2.23 -0.07,-1.7 -2.1,-2.85 -3.44,-2.81 -1.34,0.04 -3.55,0.9 -3.32,3.69 0,0 0.08,0.99 0.47,1.27z"/>
    </g>
    <g id="wheel_front">
     <g id="tire">
      <path id="Elipse" class="lmb_hrc_fil4" d="M5.72 10.48c1.7,0 3.08,1.38 3.08,3.07 0,1.7 -1.38,3.08 -3.08,3.08 -1.7,0 -3.07,-1.38 -3.07,-3.08 0,-1.69 1.37,-3.07 3.07,-3.07z"/>
      <circle class="lmb_hrc_fil5" cx="5.72" cy="13.55" r="2.33"/>
      <circle class="lmb_hrc_fil6" cx="5.72" cy="13.55" r="2.21"/>
      <circle class="lmb_hrc_fil7" cx="5.72" cy="13.55" r="2.06"/>
     </g>
     <g id="disk">
      <g id="brake_disk">
       <path class="lmb_hrc_fil8" d="M5.87 11.97c0.32,0.03 0.62,0.16 0.86,0.35 -0.01,0.06 0.01,0.12 0.05,0.16 0.04,0.04 0.1,0.06 0.16,0.05 0.2,0.23 0.33,0.53 0.36,0.85 -0.05,0.04 -0.08,0.09 -0.08,0.15 0,0.06 0.04,0.12 0.08,0.15 -0.03,0.32 -0.15,0.62 -0.35,0.86 -0.05,-0.01 -0.11,0.01 -0.15,0.05 -0.05,0.04 -0.06,0.1 -0.05,0.16 -0.24,0.2 -0.54,0.33 -0.86,0.36 -0.03,-0.05 -0.08,-0.08 -0.15,-0.08 -0.06,0 -0.11,0.04 -0.14,0.08 -0.33,-0.03 -0.63,-0.15 -0.86,-0.35 0.01,-0.05 -0.01,-0.11 -0.05,-0.15 -0.05,-0.05 -0.11,-0.06 -0.16,-0.05 -0.2,-0.24 -0.33,-0.53 -0.36,-0.86 0.04,-0.03 0.07,-0.08 0.07,-0.15 0,-0.06 -0.03,-0.11 -0.08,-0.14 0.03,-0.33 0.16,-0.62 0.35,-0.86 0.06,0.01 0.12,-0.01 0.16,-0.05 0.04,-0.05 0.06,-0.11 0.05,-0.16 0.23,-0.2 0.53,-0.33 0.85,-0.36 0.04,0.04 0.09,0.07 0.15,0.07 0.06,0 0.12,-0.03 0.15,-0.08z"/>
       <path class="lmb_hrc_fil9" d="M5.98 14.97c0.02,0.02 0.02,0.05 0,0.07 -0.02,0.02 -0.05,0.02 -0.07,0 -0.02,-0.02 -0.02,-0.05 0,-0.07 0.02,-0.02 0.05,-0.02 0.07,0zm-0.11 -0.11c0.02,0.02 0.02,0.05 0,0.07 -0.02,0.02 -0.05,0.02 -0.07,0 -0.02,-0.02 -0.02,-0.05 0,-0.07 0.02,-0.02 0.05,-0.02 0.07,0zm-0.97 -0.13c0,0.02 -0.02,0.04 -0.05,0.04 -0.02,0 -0.05,-0.02 -0.05,-0.04 0,-0.03 0.03,-0.05 0.05,-0.05 0.03,0 0.05,0.02 0.05,0.05zm0 -0.16c0,0.03 -0.02,0.05 -0.05,0.05 -0.02,0 -0.05,-0.02 -0.05,-0.05 0,-0.02 0.03,-0.05 0.05,-0.05 0.03,0 0.05,0.03 0.05,0.05zm-0.59 -0.78c-0.02,0.02 -0.05,0.02 -0.07,0 -0.02,-0.02 -0.02,-0.05 0,-0.07 0.02,-0.02 0.05,-0.02 0.07,0 0.02,0.02 0.02,0.05 0,0.07zm0.11 -0.11c-0.02,0.02 -0.05,0.02 -0.07,0 -0.02,-0.02 -0.02,-0.05 0,-0.07 0.02,-0.02 0.05,-0.02 0.07,0 0.02,0.02 0.02,0.05 0,0.07zm0.13 -0.97c-0.02,0 -0.04,-0.02 -0.04,-0.05 0,-0.02 0.02,-0.04 0.04,-0.04 0.03,0 0.05,0.02 0.05,0.04 0,0.03 -0.02,0.05 -0.05,0.05zm0.16 0c-0.03,0 -0.05,-0.02 -0.05,-0.05 0,-0.02 0.02,-0.04 0.05,-0.04 0.02,0 0.05,0.02 0.05,0.04 0,0.03 -0.03,0.05 -0.05,0.05zm0.78 -0.59c-0.02,-0.02 -0.02,-0.05 0,-0.06 0.02,-0.02 0.05,-0.02 0.07,0 0.02,0.02 0.02,0.05 0,0.06 -0.02,0.02 -0.05,0.02 -0.07,0zm0.11 0.11c-0.02,-0.02 -0.02,-0.05 0,-0.07 0.02,-0.02 0.05,-0.02 0.07,0 0.01,0.02 0.01,0.05 0,0.07 -0.02,0.02 -0.05,0.02 -0.07,0zm0.97 0.14c0,-0.03 0.02,-0.05 0.04,-0.05 0.03,0 0.05,0.02 0.05,0.05 0,0.02 -0.02,0.04 -0.05,0.04 -0.02,0 -0.04,-0.02 -0.04,-0.04zm0 0.15c0,-0.03 0.02,-0.05 0.04,-0.05 0.03,0 0.05,0.02 0.05,0.05 0,0.03 -0.02,0.05 -0.05,0.05 -0.02,0 -0.04,-0.02 -0.04,-0.05zm0.59 0.78c0.02,-0.02 0.05,-0.02 0.06,0 0.02,0.02 0.02,0.05 0,0.07 -0.02,0.02 -0.05,0.02 -0.06,0 -0.02,-0.02 -0.02,-0.05 0,-0.07zm-0.11 0.11c0.02,-0.02 0.05,-0.02 0.06,0 0.02,0.02 0.02,0.05 0,0.07 -0.01,0.02 -0.04,0.02 -0.06,0 -0.02,-0.02 -0.02,-0.05 0,-0.07zm-0.14 0.97c0.03,0 0.05,0.02 0.05,0.05 0,0.02 -0.02,0.04 -0.05,0.04 -0.02,0 -0.04,-0.02 -0.04,-0.04 0,-0.03 0.02,-0.05 0.04,-0.05zm-0.15 0c0.02,0 0.05,0.02 0.05,0.05 0,0.02 -0.03,0.04 -0.05,0.04 -0.03,0 -0.05,-0.02 -0.05,-0.04 0,-0.03 0.02,-0.05 0.05,-0.05z"/>
      </g>
      <g id="center">
       <circle class="lmb_hrc_fil5" cx="5.73" cy="13.54" r="1.17"/>
       <circle class="lmb_hrc_fil10" cx="5.73" cy="13.54" r="1.14"/>
       <circle class="lmb_hrc_fil11" cx="5.73" cy="13.54" r="1.05"/>
       <path class="lmb_hrc_fil12" d="M6.27 12.81c0.02,0.02 0.03,0.05 0.01,0.08 -0.02,0.02 -0.06,0.03 -0.08,0.01 -0.03,-0.02 -0.03,-0.05 -0.01,-0.08 0.02,-0.02 0.05,-0.03 0.08,-0.01zm0.33 0.45c0.01,0.03 -0.01,0.07 -0.04,0.08 -0.03,0.01 -0.06,-0.01 -0.07,-0.04 -0.01,-0.03 0.01,-0.06 0.04,-0.07 0.02,-0.01 0.06,0 0.07,0.03zm0 0.57c-0.01,0.03 -0.05,0.04 -0.07,0.03 -0.03,-0.01 -0.05,-0.04 -0.04,-0.07 0.01,-0.03 0.04,-0.05 0.07,-0.04 0.03,0.01 0.05,0.05 0.04,0.08zm-0.33 0.45c-0.03,0.02 -0.06,0.01 -0.08,-0.01 -0.02,-0.03 -0.01,-0.06 0.01,-0.08 0.02,-0.02 0.06,-0.01 0.08,0.01 0.02,0.03 0.01,0.06 -0.01,0.08zm-0.54 0.17c-0.03,0 -0.05,-0.02 -0.05,-0.05 0,-0.03 0.02,-0.06 0.05,-0.06 0.03,0 0.06,0.03 0.06,0.06 0,0.03 -0.03,0.06 -0.06,0.05zm-0.53 -0.17c-0.03,-0.02 -0.03,-0.05 -0.01,-0.08 0.01,-0.02 0.05,-0.03 0.08,-0.01 0.02,0.02 0.03,0.05 0.01,0.08 -0.02,0.02 -0.06,0.03 -0.08,0.01zm-0.33 -0.45c-0.01,-0.03 0,-0.07 0.03,-0.08 0.03,-0.01 0.07,0.01 0.07,0.04 0.01,0.03 0,0.06 -0.03,0.07 -0.03,0.01 -0.06,0 -0.07,-0.03zm0 -0.57c0.01,-0.03 0.04,-0.04 0.07,-0.03 0.03,0.01 0.04,0.04 0.03,0.07 0,0.03 -0.04,0.05 -0.07,0.04 -0.03,-0.01 -0.04,-0.05 -0.03,-0.08zm0.33 -0.45c0.02,-0.02 0.06,-0.01 0.08,0.01 0.02,0.03 0.01,0.06 -0.01,0.08 -0.03,0.02 -0.07,0.01 -0.08,-0.01 -0.02,-0.03 -0.02,-0.06 0.01,-0.08zm0.53 -0.18c0.03,0 0.06,0.03 0.06,0.06 0,0.03 -0.03,0.06 -0.06,0.06 -0.03,0 -0.05,-0.03 -0.05,-0.06 0,-0.03 0.02,-0.06 0.05,-0.06z"/>
       <circle class="lmb_hrc_fil9" cx="5.73" cy="13.54" r="0.71"/>
      </g>
     </g>
     <g id="braker">
      <path class="lmb_hrc_fil13" d="M5.76 11.94l0.02 -0.13c0,0 0.01,-0.1 0.12,-0.09 0.12,0 0.7,0.03 1.16,0.5 0.46,0.46 0.49,1.04 0.5,1.15 0,0.12 -0.1,0.12 -0.1,0.12l-0.13 0.02 -1.57 -1.57 0 0z"/>
      <path class="lmb_hrc_fil14" d="M6.51 12.23l0.13 -0.1c0,0 -0.04,-0.06 0.03,-0.11 0.07,-0.04 0.14,0.04 0.14,0.04 0,0 0.13,0.1 0.22,0.18 0.09,0.09 0.19,0.22 0.19,0.22 0,0 0.08,0.07 0.03,0.14 -0.04,0.07 -0.11,0.03 -0.11,0.03l-0.1 0.14 -0.54 -0.54 0.01 0z"/>
      <path class="lmb_hrc_fil15" d="M6.21 12.47l-0.03 0.27c0.07,0.12 0.23,0.28 0.36,0.35l0.26 -0.03 -0.59 -0.58 0 -0.01z"/>
      <path class="lmb_hrc_fil16" d="M5.76 11.87c0.06,-0.07 0.12,-0.05 0.18,-0.02 0.22,0.1 0.44,0.2 0.66,0.31 0.07,0.03 0.06,0.03 0.08,0.09 0.06,0.13 0.21,0.28 0.35,0.34 0.05,0.02 0.06,0.02 0.09,0.08 0.1,0.22 0.2,0.44 0.31,0.66 0.02,0.06 0.04,0.12 -0.02,0.18 -0.06,0.06 -0.16,0.05 -0.24,0.05l-0.18 0.01c-0.07,0 -0.07,0.01 -0.11,-0.05 -0.06,-0.07 -0.11,-0.18 -0.1,-0.34 0.01,-0.06 0.01,-0.04 -0.03,-0.08l-0.57 -0.58c-0.05,-0.04 -0.03,-0.04 -0.09,-0.03 -0.16,0.02 -0.27,-0.04 -0.34,-0.1 -0.06,-0.04 -0.05,-0.04 -0.05,-0.1l0.01 -0.18c0,-0.08 -0.01,-0.18 0.05,-0.24z"/>
      <path class="lmb_hrc_fil17" d="M6.31 12.32c-0.01,0 -0.01,-0.02 0,-0.02 0,-0.01 0.02,-0.01 0.02,0l0.65 0.64c0.01,0.01 0.01,0.02 0,0.03 -0.01,0.01 -0.02,0.01 -0.03,0l-0.64 -0.65z"/>
      <path class="lmb_hrc_fil17" d="M6.59 12.04c0.01,0.02 0.01,0.04 0,0.05 -0.02,0.02 -0.04,0.02 -0.05,0 -0.01,-0.01 -0.01,-0.03 0,-0.05 0.01,-0.01 0.03,-0.01 0.05,0zm-0.71 -0.29c0.01,0.02 0.01,0.04 0,0.05 -0.01,0.02 -0.03,0.02 -0.05,0 -0.01,-0.01 -0.01,-0.03 0,-0.05 0.02,-0.01 0.04,-0.01 0.05,0zm1.35 0.93c-0.01,-0.01 -0.04,-0.01 -0.05,0 -0.01,0.02 -0.01,0.04 0,0.05 0.01,0.02 0.04,0.02 0.05,0 0.01,-0.01 0.01,-0.03 0,-0.05zm0.29 0.71c-0.01,-0.01 -0.04,-0.01 -0.05,0 -0.01,0.02 -0.01,0.04 0,0.05 0.01,0.02 0.04,0.02 0.05,0 0.01,-0.01 0.01,-0.03 0,-0.05z"/>
     </g>
     <g id="pattern">
      <g id="ribs">
       <path class="lmb_hrc_fil18" d="M6.11 13.45c0.02,0 0.1,-0.01 0.15,-0.01 0.04,-0.01 0.04,-0.01 0.08,0l0.6 0.14 -0.02 0.18 -0.17 -0.06 0.01 -0.08 -0.42 -0.11c-0.04,-0.01 -0.05,-0.01 -0.09,-0.01 -0.06,0 -0.17,0.01 -0.18,0.04 -0.03,0.07 -0.05,0.13 -0.07,0.2 -0.01,0.03 0.08,0.1 0.13,0.14 0.03,0.02 0.03,0.02 0.07,0.04l0.41 0.16 0.04 -0.07 0.17 0.05 -0.09 0.16 -0.56 -0.24c-0.04,-0.02 -0.04,-0.02 -0.07,-0.05 -0.04,-0.03 -0.1,-0.08 -0.11,-0.09 -0.04,-0.03 -0.06,0 -0.05,0.03 0,0.02 0.04,0.09 0.05,0.14 0.02,0.04 0.02,0.03 0.02,0.08l0.06 0.61 -0.18 0.04 0 -0.18 0.08 -0.02 -0.02 -0.44c0,-0.04 0,-0.04 -0.02,-0.08 -0.02,-0.06 -0.06,-0.16 -0.09,-0.16 -0.07,0 -0.14,0 -0.21,0 -0.04,0 -0.08,0.1 -0.1,0.16 -0.01,0.04 -0.01,0.04 -0.01,0.08l-0.03 0.44 0.08 0.02 0 0.18 -0.18 -0.04 0.06 -0.61c0.01,-0.05 0,-0.04 0.02,-0.08 0.02,-0.05 0.05,-0.12 0.06,-0.14 0.01,-0.04 -0.02,-0.05 -0.05,-0.03 -0.02,0.01 -0.08,0.06 -0.11,0.09 -0.04,0.03 -0.03,0.03 -0.07,0.05l-0.57 0.24 -0.09 -0.16 0.17 -0.05 0.04 0.07 0.41 -0.16c0.04,-0.01 0.04,-0.02 0.08,-0.04 0.05,-0.04 0.13,-0.11 0.12,-0.14 -0.02,-0.07 -0.04,-0.13 -0.06,-0.2 -0.01,-0.03 -0.12,-0.04 -0.19,-0.04 -0.04,0 -0.04,0 -0.08,0.01l-0.43 0.11 0.02 0.09 -0.18 0.05 -0.02 -0.18 0.6 -0.13c0.05,-0.01 0.04,-0.02 0.08,-0.01 0.05,0.01 0.13,0.01 0.15,0.01 0.04,0 0.05,-0.03 0.02,-0.06 -0.02,-0.01 -0.09,-0.05 -0.13,-0.07 -0.04,-0.02 -0.03,-0.02 -0.06,-0.05l-0.41 -0.47 0.12 -0.13 0.11 0.15 -0.06 0.06 0.28 0.33c0.03,0.04 0.03,0.04 0.06,0.06 0.05,0.04 0.15,0.1 0.17,0.08 0.06,-0.04 0.12,-0.08 0.17,-0.12 0.03,-0.02 0,-0.13 -0.02,-0.19 -0.01,-0.04 -0.01,-0.04 -0.03,-0.08l-0.24 -0.36 -0.07 0.03 -0.11 -0.15 0.16 -0.07 0.32 0.53c0.02,0.04 0.02,0.03 0.03,0.07 0.01,0.05 0.03,0.13 0.03,0.15 0.02,0.03 0.05,0.03 0.06,0 0.01,-0.02 0.03,-0.1 0.04,-0.15 0,-0.04 0,-0.03 0.03,-0.07l0.31 -0.53 0.17 0.07 -0.11 0.15 -0.07 -0.04 -0.24 0.37c-0.02,0.03 -0.02,0.04 -0.04,0.08 -0.01,0.06 -0.04,0.16 -0.01,0.18 0.05,0.05 0.11,0.09 0.16,0.13 0.03,0.02 0.12,-0.04 0.18,-0.08 0.03,-0.02 0.03,-0.03 0.06,-0.06l0.27 -0.34 -0.05 -0.06 0.1 -0.14 0.13 0.13 -0.41 0.46c-0.03,0.04 -0.03,0.04 -0.06,0.06 -0.05,0.02 -0.11,0.06 -0.13,0.07 -0.03,0.03 -0.02,0.06 0.02,0.06l0.01 0z"/>
       <path class="lmb_hrc_fil5" d="M7.88 14.03l0.03 -0.19 -0.97 -0.26 -0.02 0.18 0.96 0.27 0 0zm-0.12 0.37l-0.09 0.17 -0.94 -0.35 0.09 -0.16 0.94 0.34 0 0zm-1.83 1.34l0.19 -0.04 -0.05 -1 -0.18 0.04 0.04 1zm-0.39 0l-0.19 -0.04 0.05 -1 0.18 0.04 -0.04 1zm-1.83 -1.33l0.09 0.17 0.93 -0.36 -0.08 -0.16 -0.94 0.35 0 0zm-0.12 -0.37l-0.03 -0.19 0.96 -0.27 0.03 0.18 -0.96 0.28 0 0zm0.69 -2.16l-0.13 0.14 0.63 0.78 0.12 -0.13 -0.62 -0.79 0 0zm2.58 -0.23l-0.17 -0.08 -0.55 0.83 0.17 0.08 0.55 -0.83 0 0zm-2.26 0l0.18 -0.08 0.55 0.84 -0.17 0.07 -0.56 -0.83 0 0zm2.58 0.23l0.13 0.14 -0.62 0.78 -0.12 -0.13 0.61 -0.79 0 0z"/>
       <path class="lmb_hrc_fil12" d="M7.96 14.19l-0.29 -0.08 -0.75 -0.35 0.96 0.27 0.08 0.16 0 0zm-0.05 0.14l-0.28 -0.11 -0.81 -0.16 0.94 0.35 0.15 -0.08 0 0zm-2.1 1.53l-0.02 -0.3 0.1 -0.82 0.04 1 -0.12 0.11 0 0.01zm-0.15 0l0.01 -0.3 -0.1 -0.82 -0.03 1 0.12 0.11 0 0.01zm-2.11 -1.53l0.28 -0.11 0.81 -0.15 -0.93 0.34 -0.16 -0.08 0 0zm-0.04 -0.14l0.29 -0.08 0.75 -0.35 -0.97 0.28 -0.07 0.15 0 0zm0.8 -2.47l0.19 0.23 0.4 0.72 -0.62 -0.79 0.03 -0.16 0 0zm0.12 -0.09l0.16 0.25 0.57 0.6 -0.56 -0.83 -0.17 -0.02 0 0zm2.6 0l-0.16 0.25 -0.56 0.6 0.55 -0.83 0.17 -0.02 0 0zm0.12 0.08l-0.19 0.23 -0.4 0.73 0.62 -0.79 -0.03 -0.17 0 0z"/>
       <path class="lmb_hrc_fil12" d="M6.24 13.06l0.22 -0.24 0.05 0.06 -0.27 0.33c-0.03,0.04 -0.03,0.04 -0.06,0.06 -0.06,0.04 -0.15,0.1 -0.18,0.08 -0.05,-0.04 -0.11,-0.08 -0.16,-0.12 -0.03,-0.02 0,-0.13 0.01,-0.19 0.01,-0.04 0.02,-0.04 0.04,-0.08l0.24 -0.36 0.07 0.03 -0.16 0.28c-0.04,0.07 -0.16,0.24 -0.07,0.31 0.09,0.07 0.22,-0.1 0.28,-0.16l-0.01 0zm-0.81 -0.15l-0.17 -0.28 0.08 -0.04 0.23 0.37c0.03,0.03 0.03,0.04 0.04,0.08 0.02,0.06 0.05,0.16 0.02,0.18 -0.06,0.05 -0.11,0.09 -0.17,0.13 -0.03,0.02 -0.12,-0.04 -0.17,-0.08 -0.03,-0.02 -0.04,-0.03 -0.06,-0.06l-0.28 -0.34 0.06 -0.06 0.21 0.24c0.06,0.07 0.18,0.23 0.28,0.16 0.09,-0.06 -0.03,-0.24 -0.07,-0.31l0 0.01zm-0.4 0.73l-0.31 0.07 -0.01 -0.09 0.42 -0.11c0.04,-0.01 0.04,-0.01 0.08,-0.01 0.07,0 0.18,0.01 0.19,0.04 0.02,0.07 0.04,0.13 0.06,0.2 0.01,0.03 -0.07,0.1 -0.12,0.14 -0.03,0.02 -0.04,0.02 -0.08,0.04l-0.4 0.16 -0.04 -0.07 0.29 -0.13c0.08,-0.03 0.27,-0.1 0.24,-0.21 -0.04,-0.11 -0.24,-0.05 -0.32,-0.03l0 0zm0.58 0.6l-0.04 0.32 -0.08 -0.02 0.03 -0.43c0,-0.04 0,-0.05 0.01,-0.09 0.02,-0.06 0.06,-0.16 0.1,-0.16 0.07,0 0.14,0 0.21,0 0.03,0 0.07,0.1 0.09,0.16 0.02,0.04 0.02,0.04 0.02,0.09l0.02 0.43 -0.08 0.02 -0.03 -0.32c-0.01,-0.08 -0.01,-0.29 -0.13,-0.29 -0.11,0 -0.12,0.21 -0.13,0.29l0.01 0zm0.74 -0.36l0.3 0.13 -0.04 0.07 -0.41 -0.16c-0.04,-0.02 -0.04,-0.02 -0.07,-0.04 -0.05,-0.04 -0.14,-0.11 -0.13,-0.14 0.02,-0.07 0.04,-0.14 0.07,-0.2 0.01,-0.03 0.12,-0.04 0.18,-0.04 0.04,0 0.05,0 0.09,0.01l0.42 0.11 -0.01 0.08 -0.32 -0.06c-0.08,-0.02 -0.28,-0.08 -0.31,0.03 -0.04,0.11 0.16,0.18 0.23,0.21l0 0z"/>
       <path class="lmb_hrc_fil19" d="M5.43 13.43l0.28 -0.2c0.01,-0.01 0.03,-0.01 0.05,0l0.27 0.2c0.02,0.01 0.02,0.03 0.02,0.05l-0.11 0.32c0,0.02 -0.02,0.03 -0.04,0.03l-0.34 0c-0.01,0 -0.03,-0.01 -0.04,-0.03l-0.1 -0.32c-0.01,-0.02 0,-0.04 0.01,-0.05l0 0z"/>
      </g>
      <g id="lamborghini_logo">
       <path id="logo_bg" class="lmb_hrc_fil20" d="M5.72 13.77c-0.12,-0.09 -0.17,-0.21 -0.17,-0.35 0,-0.02 0,-0.02 0.02,-0.03 0.05,-0.02 0.1,-0.03 0.16,-0.03 0.06,0 0.12,0.01 0.16,0.03 0.02,0.01 0.02,0.01 0.02,0.03 0,0.14 -0.05,0.26 -0.16,0.35l0 0c-0.01,0.01 -0.02,0.01 -0.02,0.01 0,0 0,0 0,0 0,0 0,0 0,0 0,0 -0.01,0 -0.01,-0.01l0 0z"/>
       <path id="logo_contour" class="lmb_hrc_fil21" d="M5.71 13.77c-0.05,-0.04 -0.09,-0.09 -0.12,-0.15 -0.03,-0.06 -0.04,-0.13 -0.04,-0.2 0,-0.01 0,-0.02 0,-0.02 0,-0.01 0.01,-0.01 0.02,-0.02 0.02,0 0.05,-0.01 0.08,-0.02 0.02,0 0.05,0 0.08,0 0.04,0 0.07,0 0.09,0 0.03,0.01 0.06,0.02 0.08,0.02 0.01,0.01 0.01,0.01 0.02,0.02 0,0 0,0.01 0,0.02 0,0.07 -0.01,0.14 -0.04,0.2 -0.03,0.06 -0.07,0.11 -0.12,0.15l-0.01 0.01 0 0c0,0 0,0 -0.01,0 0,0 0,0.01 -0.01,0.01l0 0 0 0c0,0 0,-0.01 -0.01,-0.01 0,0 0,0 0,0l0 0 -0.01 -0.01 0 0zm-0.11 -0.15c0.03,0.05 0.07,0.1 0.12,0.14l0 0c0,0.01 0.01,0.01 0.01,0.01 0,0 0,0 0,0l0 0 0 0 0 0c0,0 0,0 0,0 0.01,0 0.01,0 0.01,-0.01l0 0c0.06,-0.04 0.1,-0.09 0.12,-0.14 0.03,-0.06 0.05,-0.13 0.05,-0.2 0,-0.01 0,-0.02 -0.01,-0.02 0,0 0,0 -0.01,-0.01 -0.02,-0.01 -0.04,-0.01 -0.07,-0.02 -0.03,0 -0.06,0 -0.09,0 -0.03,0 -0.06,0 -0.08,0 -0.03,0.01 -0.06,0.01 -0.08,0.02 0,0.01 -0.01,0.01 -0.01,0.01 0,0 0,0.01 0,0.02 0,0.07 0.01,0.14 0.04,0.2l0 0z"/>
       <path id="logo_ox" class="lmb_hrc_fil21" d="M5.66 13.68c0,0 0,0 0,0 0,0 0,-0.01 0,-0.01 0.01,0 0.01,0 0.01,-0.01 0,-0.01 0,-0.01 0,-0.01 0,-0.01 0,-0.01 0.01,-0.02 0,0 0,-0.01 0,-0.01 0,0 0,0 0.01,-0.01 0,0 0,-0.01 0,-0.01 0,0 0,0.01 0,0.01 0,0.01 0,0.01 0.01,0.01 0,0 0,0 0,0.01 0,0 -0.01,0 -0.01,0 0,0.01 0,0.01 0,0.02 -0.01,0 -0.01,0 -0.01,0 0,0 0,0 0,0 -0.01,0.01 -0.01,0.01 -0.01,0.01 0,0.01 0.01,0.01 0.01,0.01 0,0 0,0 0,0 0,0 0,0 0,0 0.01,0 0.01,0 0.01,-0.01 0,0 0.01,-0.01 0.01,-0.02 0,0 0.01,0 0.01,0 0,0 0,-0.01 0,-0.01 0.01,0 0.01,-0.01 0.01,-0.01 0,0 0,0 0,0 0,0 0,0.02 0,0.02 -0.01,0 -0.01,0.01 -0.01,0.01 0,0 0,0 0,0 0,0 0,0 0.01,0 0,0 0,0 0,0 0,0 0,0 0,0 0.01,0 0.01,0 0.01,-0.01 0,0 0,0 0,0 0.01,0 0.01,-0.01 0.01,-0.01 0,0 0,-0.01 0,-0.01 0,0 0,0.01 0,0.01 0.01,0.01 0.01,0.01 0.02,0.01 0.01,0 0.01,0 0.01,0 0,0 0,0 0.01,-0.01 0,0 0,0 0,0 0,-0.01 0,-0.01 0,-0.02 0.01,0 0.02,-0.01 0.02,-0.01 0,0 0,0.01 0,0.01 0,0.01 0,0.01 0,0.01 0,0 0,0.01 0,0.01 0,0 0,0 0,0.01 0,0 0,0.01 0.01,0.01 0,0 0,0 0,0l0.01 0 0 0c0,0 0,-0.01 0,-0.01 0,0 0,-0.01 0,-0.01 0,0 0,0 0,-0.01 0,0 0,-0.01 0,-0.01 0,-0.01 0,-0.01 0,-0.02 0,0 0,-0.01 0,0 0.01,0 0.02,0 0.03,-0.01 0,0 0,0 0,0 -0.01,0 -0.02,-0.01 -0.03,-0.01l0 -0.01c0,-0.01 0,-0.02 0,-0.04 0,-0.01 0,-0.01 0,-0.01 0,-0.01 -0.01,-0.01 -0.01,-0.01 0,-0.01 0,-0.01 0,-0.01 0,0 0,0 0,-0.01 0.02,-0.05 -0.1,-0.02 -0.09,-0.04 0.01,0 0.01,0 0.02,0 0.01,0.01 0.02,0.01 0.03,0 0,0 0,0 0,0 -0.01,0 -0.01,0 -0.01,0 0,0 0,0 0,0 0.02,0 0.02,0 0.02,0 0,0 0,-0.01 0,-0.01 -0.02,-0.01 -0.04,-0.01 -0.05,0 -0.01,0.01 -0.02,0.02 0,0.02 0,0 0.01,0 0.03,0 0.01,0 0.06,0 0.04,0.03 -0.01,-0.01 -0.02,-0.01 -0.03,-0.01 -0.02,-0.01 -0.02,-0.01 -0.03,0 0,0.01 -0.01,0.01 -0.02,0.02 -0.02,0.01 -0.02,0.01 -0.02,0.03 0,0 0,0.01 -0.01,0.01 -0.01,0.02 -0.01,0.02 -0.01,0.04 0,0 0,0.01 0,0.02 -0.01,0 -0.01,0.01 -0.01,0.02 0,0 0,0.01 0,0.01 0,0 0,0.01 0,0.01 0,0.01 0,0.01 -0.01,0.02 0,0 0,0 0,0.01 0,0 -0.01,0 -0.01,0 0,0.01 0,0.01 0,0.01 0,0.01 0,0.01 0,0l0 0 0 0 0 0.01 0.01 0c0,0 0,0 0.01,-0.01l0 0 -0.01 0.01zm0.09 -0.23c-0.01,0 -0.01,-0.01 0,0zm-0.16 -0.02c0,0 -0.01,0.01 -0.01,0.01 0,-0.01 -0.01,-0.04 -0.01,-0.04 0,0 0,0 0,0l0 0.05 0.02 -0.01c0,0 0,-0.01 0,-0.01l0 0zm0.3 -0.03c0,0 0,0 0,0l0 0.05 0 0c0,-0.01 0,-0.05 0,-0.05zm-0.01 -0.01c0,0 -0.01,0 -0.01,0 0,0 0,0.03 0,0.03 0,0 0,-0.01 -0.01,-0.02 0,-0.01 0,-0.01 0,-0.01l-0.01 0c0,0 0,0.05 0,0.05 0,0 0.01,0 0.01,0 0,-0.01 0,-0.03 0,-0.03 0,0 0,0.01 0,0.02 0.01,0.01 0.01,0.01 0.02,0.01 0,0 0,-0.04 0,-0.04l0 -0.01zm-0.28 0.05c0,0 0,0 0,-0.01 0,0 0,0 0.01,-0.01 0,0 0,0 0,0.01 0,0 0,0.01 0.01,0 0,0 0,0 0,0 0,0 0,-0.01 0,-0.01 0,-0.01 -0.01,-0.02 -0.01,-0.03 0,0 0,0 0,0 0,0 -0.01,0 -0.01,0 0,0 -0.01,0.05 -0.01,0.05 0,0 0,0 0.01,0l0 0 0 0zm0.01 -0.03c0,-0.01 0,0 0,0.01 -0.01,0 0,-0.01 0,-0.01zm0.24 -0.02c-0.01,0 -0.01,-0.01 -0.01,-0.01 0,0 0,0.05 0,0.05 0,0 0,0 0,0 0,0 0,-0.04 0,-0.04l0.01 0zm-0.21 0.04c0,-0.01 0,-0.02 0,-0.02 0,0 0.01,0.02 0.01,0.02 0,0 0,-0.02 0,-0.03l0 0.03 0.01 0c0,-0.01 0,-0.05 0,-0.05 0,0 0,0 0,0 -0.01,0 -0.01,0 -0.01,0.01l-0.01 0.02 0 -0.02c0,-0.01 0,-0.01 -0.01,-0.01 0,0 0,0 0,0 0,0 0,0.04 0,0.05 0,0 0,0 0,0 0,0 0,0 0,0l0.01 0zm0.19 -0.05c0,0 -0.01,0 -0.01,0l0 0.01c0,0.01 0,0.01 0,0.01 -0.01,0 -0.01,0 -0.01,-0.01l0 -0.01 -0.01 0 0 0.02c0,0.03 0,0.03 0.01,0.03 0,0 0,-0.01 0,-0.01l0 -0.01c0,0 0.01,0 0.01,0 0,0 0,0 0,0.01l0 0.01c0,0 0.01,0 0.01,0 0,0 0,-0.05 0,-0.05l0 0zm-0.14 0.04c0.01,0 0.01,-0.01 0,-0.02 0,0 0,0 0,0 0.01,-0.01 0.01,-0.02 0,-0.02 0,0 0,-0.01 -0.01,0l-0.01 0 0 0.05 0.01 0c0,0 0.01,-0.01 0.01,-0.01l0 0zm-0.01 0c0,-0.01 0,-0.01 0,-0.01 0,-0.01 0,-0.01 0,-0.01 0.01,0 0.01,0.02 0,0.02 0,0 0,0 0,0zm0 -0.03c0,0 0,-0.01 0,-0.01 0,0 0.01,0 0.01,0.01 0,0 -0.01,0.01 -0.01,0.01 0,0 0,0 0,-0.01l0 0zm0.12 0.02l0 -0.01 -0.01 0c-0.01,0 -0.01,0 -0.01,0 0,0.01 0,0.01 0.01,0.01 0,0 0,0.01 0,0.01 -0.01,0 -0.01,-0.01 -0.01,-0.02 0,-0.01 0,-0.02 0,-0.02 0.01,0 0,0.01 0.01,0.01 0,0 0.01,0 0.01,0 0,0 0,0 -0.01,-0.01 0,-0.01 -0.02,-0.01 -0.02,0 0,0.01 0,0.02 0,0.03 0,0.02 0.03,0.02 0.03,0l0 0zm-0.08 0.01c0.01,0 0.01,-0.01 0.01,-0.02 0,-0.02 0,-0.03 -0.01,-0.03 -0.01,0 -0.01,0 -0.01,0.01 0,0 -0.01,0.01 -0.01,0.02 0,0.01 0,0.01 0.01,0.02 0,0 0.01,0.01 0.01,0l0 0 0 0zm-0.01 -0.01c0,0 0,-0.03 0.01,-0.03 0,0 0.01,0.03 0,0.03 0,0.01 0,0.01 -0.01,0zm0.05 0l0 -0.01c0,0 0.01,0 0,-0.01 0,-0.02 -0.01,-0.02 -0.02,-0.02l0 0.05 0.01 0c0,-0.04 0,0 0.01,0 0.01,0.01 0.01,0 0,-0.01l0 0zm-0.01 -0.03c0,0 0.01,0 0.01,0.01 0,0.01 -0.01,0 -0.01,0 0,0 0,0 0,-0.01l0 0z"/>
      </g>
     </g>
     <circle id="under_shadow" class="lmb_hrc_fil22" cx="5.73" cy="13.54" r="3.06"/>
    </g>
    <g id="wheel_front_0">
     <g id="tire_1">
      <path id="Elipse_2" class="lmb_hrc_fil23" d="M26.84 10.46c1.7,0 3.07,1.38 3.07,3.08 0,1.7 -1.37,3.07 -3.07,3.07 -1.7,0 -3.08,-1.37 -3.08,-3.07 0,-1.7 1.38,-3.08 3.08,-3.08z"/>
      <circle class="lmb_hrc_fil5" cx="26.84" cy="13.54" r="2.33"/>
      <circle class="lmb_hrc_fil6" cx="26.84" cy="13.54" r="2.21"/>
      <circle class="lmb_hrc_fil24" cx="26.84" cy="13.54" r="2.06"/>
     </g>
     <g id="disk_3">
      <g id="brake_disk_4">
       <path class="lmb_hrc_fil8" d="M26.98 11.96c0.33,0.03 0.63,0.15 0.87,0.35 -0.01,0.05 0,0.11 0.05,0.15 0.04,0.05 0.1,0.06 0.15,0.05 0.2,0.24 0.33,0.53 0.37,0.86 -0.05,0.03 -0.08,0.08 -0.08,0.15 0,0.06 0.03,0.11 0.08,0.14 -0.03,0.33 -0.16,0.62 -0.35,0.86 -0.06,-0.01 -0.12,0.01 -0.16,0.05 -0.04,0.05 -0.06,0.11 -0.05,0.16 -0.23,0.2 -0.53,0.33 -0.85,0.36 -0.03,-0.04 -0.09,-0.07 -0.15,-0.07 -0.06,0 -0.11,0.03 -0.15,0.08 -0.32,-0.03 -0.62,-0.16 -0.86,-0.35 0.01,-0.06 0,-0.12 -0.05,-0.16 -0.04,-0.04 -0.1,-0.06 -0.16,-0.05 -0.2,-0.23 -0.33,-0.53 -0.36,-0.85 0.05,-0.04 0.08,-0.09 0.08,-0.15 0,-0.06 -0.03,-0.12 -0.08,-0.15 0.03,-0.32 0.16,-0.62 0.35,-0.86 0.05,0.01 0.11,-0.01 0.16,-0.05 0.04,-0.04 0.05,-0.1 0.04,-0.16 0.24,-0.2 0.54,-0.33 0.86,-0.36 0.03,0.05 0.09,0.08 0.15,0.08 0.06,0 0.11,-0.04 0.14,-0.08z"/>
       <path class="lmb_hrc_fil9" d="M27.09 14.95c0.02,0.02 0.02,0.05 0,0.07 -0.02,0.02 -0.04,0.02 -0.06,0 -0.02,-0.02 -0.02,-0.05 0,-0.07 0.02,-0.02 0.05,-0.02 0.06,0zm-0.1 -0.11c0.02,0.02 0.02,0.05 0,0.07 -0.02,0.02 -0.05,0.02 -0.07,0 -0.02,-0.02 -0.02,-0.05 0,-0.07 0.02,-0.02 0.05,-0.02 0.07,0zm-0.97 -0.13c0,0.03 -0.03,0.05 -0.05,0.05 -0.03,0 -0.05,-0.02 -0.05,-0.05 0,-0.03 0.02,-0.05 0.05,-0.05 0.02,0 0.05,0.02 0.05,0.05zm0 -0.15c0,0.02 -0.03,0.04 -0.05,0.04 -0.03,0 -0.05,-0.02 -0.05,-0.04 0,-0.03 0.02,-0.05 0.05,-0.05 0.02,0 0.05,0.02 0.05,0.05zm-0.59 -0.79c-0.02,0.02 -0.05,0.02 -0.07,0 -0.02,-0.02 -0.02,-0.05 0,-0.06 0.02,-0.02 0.05,-0.02 0.07,0 0.02,0.02 0.02,0.05 0,0.06zm0.11 -0.1c-0.02,0.02 -0.05,0.02 -0.07,0 -0.02,-0.02 -0.02,-0.05 0,-0.07 0.02,-0.02 0.05,-0.02 0.07,0 0.02,0.02 0.02,0.05 0,0.07zm0.13 -0.97c-0.03,0 -0.05,-0.03 -0.05,-0.05 0,-0.03 0.02,-0.05 0.05,-0.05 0.03,0 0.05,0.02 0.05,0.05 0,0.02 -0.02,0.05 -0.05,0.05zm0.15 0c-0.02,0 -0.04,-0.03 -0.04,-0.05 0,-0.03 0.02,-0.05 0.04,-0.05 0.03,0 0.05,0.02 0.05,0.05 0,0.02 -0.02,0.05 -0.05,0.05zm0.79 -0.59c-0.02,-0.02 -0.02,-0.05 0,-0.07 0.02,-0.02 0.05,-0.02 0.06,0 0.02,0.02 0.02,0.05 0,0.07 -0.02,0.02 -0.05,0.02 -0.06,0zm0.1 0.11c-0.02,-0.02 -0.02,-0.05 0,-0.07 0.02,-0.02 0.05,-0.02 0.07,0 0.02,0.02 0.02,0.05 0,0.07 -0.02,0.02 -0.05,0.02 -0.07,0zm0.97 0.13c0,-0.03 0.03,-0.05 0.05,-0.05 0.03,0 0.05,0.02 0.05,0.05 0,0.03 -0.02,0.05 -0.05,0.05 -0.02,0 -0.05,-0.02 -0.05,-0.05zm0 0.15c0,-0.02 0.03,-0.04 0.05,-0.04 0.03,0 0.05,0.02 0.05,0.04 0,0.03 -0.02,0.05 -0.05,0.05 -0.02,0 -0.05,-0.02 -0.05,-0.05zm0.59 0.79c0.02,-0.02 0.05,-0.02 0.07,0 0.02,0.02 0.02,0.04 0,0.06 -0.02,0.02 -0.05,0.02 -0.07,0 -0.02,-0.02 -0.02,-0.05 0,-0.06zm-0.11 0.1c0.02,-0.02 0.05,-0.02 0.07,0 0.02,0.02 0.02,0.05 0,0.07 -0.02,0.02 -0.05,0.02 -0.07,0 -0.02,-0.02 -0.02,-0.05 0,-0.07zm-0.13 0.97c0.03,0 0.05,0.03 0.05,0.05 0,0.03 -0.02,0.05 -0.05,0.05 -0.03,0 -0.05,-0.02 -0.05,-0.05 0,-0.02 0.02,-0.05 0.05,-0.05zm-0.15 0c0.02,0 0.04,0.03 0.04,0.05 0,0.03 -0.02,0.05 -0.04,0.05 -0.03,0 -0.05,-0.02 -0.05,-0.05 0,-0.02 0.02,-0.05 0.05,-0.05z"/>
      </g>
      <g id="center_5">
       <circle class="lmb_hrc_fil5" cx="26.85" cy="13.53" r="1.17"/>
       <circle class="lmb_hrc_fil10" cx="26.85" cy="13.53" r="1.14"/>
       <circle class="lmb_hrc_fil11" cx="26.85" cy="13.53" r="1.05"/>
       <path class="lmb_hrc_fil12" d="M27.38 12.79c0.03,0.02 0.03,0.06 0.01,0.08 -0.01,0.03 -0.05,0.03 -0.07,0.01 -0.03,-0.01 -0.04,-0.05 -0.02,-0.07 0.02,-0.03 0.06,-0.04 0.08,-0.02zm0.33 0.46c0.01,0.03 0,0.06 -0.03,0.07 -0.03,0.01 -0.06,-0.01 -0.07,-0.04 -0.01,-0.03 0,-0.06 0.03,-0.07 0.03,-0.01 0.06,0.01 0.07,0.04zm0 0.56c-0.01,0.03 -0.04,0.05 -0.07,0.04 -0.03,-0.01 -0.04,-0.05 -0.03,-0.08 0.01,-0.03 0.04,-0.04 0.07,-0.03 0.03,0.01 0.04,0.04 0.03,0.07zm-0.33 0.45c-0.02,0.02 -0.06,0.02 -0.08,-0.01 -0.01,-0.02 -0.01,-0.06 0.02,-0.08 0.02,-0.01 0.06,-0.01 0.07,0.02 0.02,0.02 0.02,0.06 -0.01,0.07zm-0.53 0.18c-0.03,0 -0.06,-0.03 -0.06,-0.06 0,-0.03 0.03,-0.05 0.06,-0.05 0.03,0 0.05,0.02 0.05,0.05 0,0.03 -0.02,0.06 -0.05,0.06zm-0.53 -0.18c-0.03,-0.01 -0.04,-0.05 -0.02,-0.07 0.02,-0.03 0.06,-0.04 0.08,-0.02 0.03,0.02 0.03,0.06 0.01,0.08 -0.01,0.03 -0.05,0.03 -0.07,0.01zm-0.34 -0.45c0,-0.03 0.01,-0.06 0.04,-0.07 0.03,-0.01 0.06,0 0.07,0.03 0.01,0.03 0,0.07 -0.03,0.08 -0.03,0.01 -0.07,-0.01 -0.08,-0.04zm0 -0.56c0.01,-0.03 0.05,-0.05 0.08,-0.04 0.03,0.01 0.04,0.04 0.03,0.07 -0.01,0.03 -0.04,0.05 -0.07,0.04 -0.03,-0.01 -0.04,-0.04 -0.04,-0.07zm0.34 -0.46c0.02,-0.01 0.06,-0.01 0.07,0.02 0.02,0.02 0.02,0.06 -0.01,0.07 -0.02,0.02 -0.06,0.02 -0.08,-0.01 -0.01,-0.02 -0.01,-0.06 0.02,-0.08zm0.53 -0.17c0.03,0 0.05,0.02 0.05,0.05 0,0.04 -0.02,0.06 -0.05,0.06 -0.03,0 -0.06,-0.03 -0.06,-0.06 0,-0.03 0.03,-0.05 0.06,-0.05z"/>
       <circle class="lmb_hrc_fil9" cx="26.85" cy="13.53" r="0.71"/>
      </g>
     </g>
     <g id="braker_6">
      <path class="lmb_hrc_fil13" d="M26.88 11.92l0.02 -0.13c0,0 0,-0.09 0.12,-0.09 0.11,0.01 0.69,0.04 1.15,0.5 0.47,0.46 0.5,1.04 0.5,1.15 0.01,0.12 -0.09,0.13 -0.09,0.13l-0.13 0.01 -1.57 -1.57 0 0z"/>
      <path class="lmb_hrc_fil14" d="M27.62 12.22l0.14 -0.1c0,0 -0.04,-0.07 0.03,-0.11 0.07,-0.05 0.14,0.03 0.14,0.03 0,0 0.13,0.1 0.22,0.19 0.08,0.08 0.18,0.22 0.18,0.22 0,0 0.08,0.07 0.04,0.13 -0.05,0.07 -0.11,0.04 -0.11,0.04l-0.1 0.13 -0.54 -0.54 0 0.01z"/>
      <path class="lmb_hrc_fil15" d="M27.33 12.46l-0.03 0.26c0.07,0.13 0.23,0.28 0.35,0.36l0.27 -0.03 -0.59 -0.59 0 0z"/>
      <path class="lmb_hrc_fil16" d="M26.88 11.85c0.06,-0.06 0.12,-0.05 0.18,-0.02 0.22,0.1 0.44,0.21 0.66,0.31 0.06,0.03 0.06,0.04 0.08,0.09 0.06,0.13 0.21,0.28 0.34,0.34 0.06,0.03 0.06,0.02 0.09,0.09 0.11,0.22 0.21,0.44 0.31,0.65 0.03,0.06 0.05,0.12 -0.02,0.19 -0.06,0.06 -0.16,0.04 -0.24,0.05l-0.18 0c-0.06,0.01 -0.06,0.01 -0.1,-0.04 -0.06,-0.07 -0.12,-0.19 -0.1,-0.35 0.01,-0.05 0.01,-0.04 -0.03,-0.08l-0.58 -0.57c-0.04,-0.05 -0.02,-0.04 -0.08,-0.04 -0.16,0.02 -0.27,-0.03 -0.34,-0.09 -0.06,-0.05 -0.05,-0.04 -0.05,-0.11l0.01 -0.18c0,-0.08 -0.01,-0.18 0.05,-0.24z"/>
      <path class="lmb_hrc_fil17" d="M27.42 12.31c-0.01,-0.01 -0.01,-0.02 0,-0.03 0.01,-0.01 0.02,-0.01 0.03,0l0.65 0.65c0,0 0,0.02 0,0.02 -0.01,0.01 -0.02,0.01 -0.03,0l-0.65 -0.64z"/>
      <path class="lmb_hrc_fil17" d="M27.71 12.03c0.01,0.01 0.01,0.03 0,0.05 -0.02,0.01 -0.04,0.01 -0.05,0 -0.02,-0.02 -0.02,-0.04 0,-0.05 0.01,-0.02 0.03,-0.02 0.05,0zm-0.71 -0.29c0.01,0.01 0.01,0.03 0,0.05 -0.02,0.01 -0.04,0.01 -0.05,0 -0.02,-0.02 -0.02,-0.04 0,-0.05 0.01,-0.02 0.03,-0.02 0.05,0zm1.35 0.93c-0.02,-0.02 -0.04,-0.02 -0.05,0 -0.02,0.01 -0.02,0.03 0,0.05 0.01,0.01 0.03,0.01 0.05,0 0.01,-0.02 0.01,-0.04 0,-0.05zm0.29 0.71c-0.02,-0.02 -0.04,-0.02 -0.05,0 -0.02,0.01 -0.02,0.03 0,0.05 0.01,0.01 0.03,0.01 0.05,0 0.01,-0.02 0.01,-0.04 0,-0.05z"/>
     </g>
     <g id="pattern_7">
      <g id="ribs_8">
       <path class="lmb_hrc_fil18" d="M27.23 13.44c0.02,0 0.1,-0.01 0.15,-0.02 0.04,0 0.03,0 0.08,0.01l0.6 0.13 -0.02 0.18 -0.18 -0.05 0.02 -0.08 -0.43 -0.11c-0.04,-0.01 -0.04,-0.02 -0.08,-0.02 -0.07,0 -0.17,0.01 -0.19,0.04 -0.02,0.07 -0.04,0.14 -0.06,0.2 -0.01,0.03 0.07,0.1 0.12,0.14 0.04,0.02 0.04,0.03 0.08,0.04l0.41 0.16 0.03 -0.07 0.18 0.06 -0.09 0.16 -0.57 -0.25c-0.04,-0.02 -0.04,-0.01 -0.07,-0.04 -0.03,-0.04 -0.09,-0.09 -0.11,-0.1 -0.03,-0.02 -0.06,0 -0.05,0.04 0.01,0.02 0.04,0.09 0.06,0.13 0.02,0.04 0.02,0.04 0.02,0.08l0.06 0.62 -0.18 0.03 0 -0.18 0.08 -0.02 -0.03 -0.43c0,-0.04 0,-0.05 -0.01,-0.09 -0.02,-0.06 -0.06,-0.16 -0.1,-0.16 -0.07,0 -0.13,0 -0.21,0 -0.03,0 -0.07,0.1 -0.09,0.16 -0.01,0.04 -0.01,0.05 -0.02,0.09l-0.02 0.43 0.08 0.02 0 0.18 -0.18 -0.03 0.06 -0.62c0,-0.04 0,-0.04 0.02,-0.08 0.02,-0.04 0.05,-0.11 0.06,-0.13 0.01,-0.04 -0.02,-0.06 -0.06,-0.04 -0.01,0.01 -0.07,0.07 -0.11,0.1 -0.03,0.03 -0.03,0.02 -0.07,0.04l-0.56 0.25 -0.09 -0.16 0.17 -0.06 0.04 0.07 0.41 -0.16c0.04,-0.01 0.04,-0.01 0.07,-0.04 0.05,-0.03 0.14,-0.1 0.13,-0.14 -0.02,-0.06 -0.05,-0.13 -0.07,-0.2 -0.01,-0.03 -0.12,-0.03 -0.18,-0.03 -0.04,0 -0.05,0 -0.09,0.01l-0.42 0.11 0.01 0.08 -0.17 0.06 -0.02 -0.19 0.6 -0.13c0.04,-0.01 0.04,-0.01 0.08,-0.01 0.05,0.01 0.13,0.02 0.15,0.02 0.04,0 0.04,-0.04 0.02,-0.06 -0.02,-0.02 -0.09,-0.05 -0.13,-0.08 -0.04,-0.02 -0.04,-0.02 -0.06,-0.05l-0.41 -0.46 0.12 -0.14 0.11 0.15 -0.06 0.06 0.28 0.34c0.02,0.03 0.02,0.03 0.06,0.06 0.05,0.03 0.14,0.09 0.17,0.07 0.06,-0.04 0.11,-0.08 0.17,-0.12 0.03,-0.02 0,-0.13 -0.02,-0.19 -0.01,-0.04 -0.02,-0.04 -0.04,-0.07l-0.23 -0.37 -0.08 0.04 -0.1 -0.15 0.16 -0.08 0.32 0.53c0.02,0.04 0.02,0.04 0.03,0.08 0.01,0.04 0.02,0.12 0.03,0.14 0.01,0.04 0.05,0.03 0.06,0 0.01,-0.02 0.02,-0.1 0.03,-0.14 0.01,-0.04 0.01,-0.04 0.03,-0.08l0.32 -0.53 0.16 0.08 -0.1 0.14 -0.08 -0.03 -0.23 0.37c-0.02,0.03 -0.03,0.03 -0.04,0.07 -0.02,0.06 -0.05,0.17 -0.02,0.19 0.06,0.04 0.11,0.08 0.17,0.12 0.03,0.02 0.12,-0.04 0.17,-0.07 0.04,-0.03 0.04,-0.03 0.06,-0.06l0.28 -0.34 -0.06 -0.06 0.11 -0.15 0.12 0.13 -0.4 0.47c-0.03,0.03 -0.03,0.03 -0.07,0.05 -0.04,0.03 -0.11,0.06 -0.12,0.08 -0.04,0.02 -0.02,0.05 0.02,0.05l0.01 0.01z"/>
       <path class="lmb_hrc_fil5" d="M29 14.02l0.02 -0.19 -0.96 -0.27 -0.02 0.18 0.96 0.28 0 0zm-0.12 0.37l-0.09 0.17 -0.94 -0.35 0.09 -0.16 0.93 0.34 0.01 0zm-1.83 1.33l0.18 -0.04 -0.04 -0.99 -0.18 0.03 0.04 1zm-0.39 0l-0.19 -0.04 0.04 -0.99 0.18 0.03 -0.03 1zm-1.84 -1.33l0.09 0.17 0.94 -0.35 -0.09 -0.16 -0.93 0.34 -0.01 0zm-0.12 -0.37l-0.02 -0.19 0.96 -0.27 0.02 0.19 -0.96 0.27 0 0zm0.7 -2.15l-0.13 0.14 0.62 0.78 0.13 -0.14 -0.62 -0.78 0 0zm2.58 -0.23l-0.17 -0.09 -0.55 0.84 0.16 0.07 0.56 -0.82 0 0zm-2.26 0l0.17 -0.09 0.55 0.84 -0.16 0.08 -0.56 -0.83 0 0zm2.58 0.23l0.13 0.14 -0.62 0.78 -0.13 -0.14 0.62 -0.78 0 0z"/>
       <path class="lmb_hrc_fil12" d="M29.07 14.17l-0.29 -0.08 -0.74 -0.35 0.96 0.28 0.07 0.15 0 0zm-0.04 0.14l-0.28 -0.1 -0.81 -0.16 0.93 0.34 0.16 -0.08 0 0zm-2.11 1.53l-0.01 -0.3 0.1 -0.82 0.04 1 -0.13 0.12 0 0zm-0.14 0l0.01 -0.3 -0.1 -0.82 -0.04 1 0.13 0.12 0 0zm-2.11 -1.53l0.28 -0.1 0.81 -0.16 -0.94 0.35 -0.15 -0.08 0 -0.01zm-0.04 -0.14l0.28 -0.07 0.75 -0.35 -0.96 0.27 -0.07 0.15 0 0zm0.8 -2.47l0.19 0.23 0.4 0.72 -0.62 -0.78 0.03 -0.17 0 0zm0.12 -0.09l0.16 0.25 0.56 0.61 -0.55 -0.83 -0.17 -0.03 0 0zm2.6 0l-0.16 0.25 -0.57 0.6 0.56 -0.82 0.17 -0.03 0 0zm0.12 0.09l-0.19 0.23 -0.4 0.72 0.62 -0.78 -0.03 -0.17 0 0z"/>
       <path class="lmb_hrc_fil12" d="M27.36 13.04l0.21 -0.24 0.06 0.06 -0.28 0.34c-0.02,0.03 -0.02,0.03 -0.06,0.06 -0.05,0.03 -0.14,0.09 -0.17,0.07 -0.06,-0.04 -0.11,-0.08 -0.17,-0.12 -0.03,-0.02 0,-0.13 0.02,-0.19 0.01,-0.04 0.02,-0.04 0.04,-0.07l0.23 -0.37 0.08 0.04 -0.16 0.27c-0.05,0.08 -0.16,0.25 -0.07,0.31 0.09,0.07 0.22,-0.1 0.27,-0.16l0 0zm-0.82 -0.15l-0.16 -0.28 0.08 -0.03 0.23 0.37c0.02,0.03 0.02,0.03 0.04,0.07 0.02,0.06 0.05,0.17 0.02,0.19 -0.06,0.04 -0.12,0.08 -0.17,0.12 -0.03,0.02 -0.12,-0.04 -0.17,-0.07 -0.04,-0.03 -0.04,-0.03 -0.07,-0.06l-0.27 -0.34 0.06 -0.06 0.21 0.24c0.05,0.06 0.18,0.23 0.27,0.16 0.1,-0.07 -0.02,-0.24 -0.07,-0.31l0 0zm-0.39 0.73l-0.32 0.07 -0.01 -0.08 0.43 -0.11c0.04,-0.01 0.04,-0.01 0.08,-0.01 0.06,0 0.17,0 0.18,0.03 0.03,0.07 0.05,0.14 0.07,0.2 0.01,0.04 -0.07,0.11 -0.12,0.14 -0.04,0.03 -0.04,0.03 -0.08,0.04l-0.41 0.16 -0.04 -0.07 0.3 -0.13c0.07,-0.03 0.27,-0.1 0.24,-0.21 -0.04,-0.11 -0.24,-0.05 -0.32,-0.03l0 0zm0.57 0.6l-0.03 0.32 -0.08 -0.01 0.02 -0.44c0.01,-0.04 0.01,-0.04 0.02,-0.08 0.02,-0.06 0.06,-0.17 0.09,-0.17 0.07,0 0.14,0 0.21,0 0.04,0 0.08,0.11 0.1,0.17 0.01,0.04 0.01,0.04 0.01,0.08l0.03 0.44 -0.08 0.01 -0.03 -0.32c-0.01,-0.08 -0.02,-0.29 -0.13,-0.29 -0.12,0 -0.12,0.21 -0.13,0.29l0 0zm0.75 -0.36l0.29 0.13 -0.03 0.07 -0.41 -0.16c-0.04,-0.01 -0.04,-0.01 -0.08,-0.04 -0.05,-0.04 -0.13,-0.11 -0.12,-0.14 0.02,-0.07 0.04,-0.13 0.06,-0.2 0.01,-0.03 0.12,-0.04 0.19,-0.04 0.04,0 0.04,0 0.08,0.02l0.43 0.11 -0.02 0.08 -0.31 -0.07c-0.08,-0.02 -0.28,-0.08 -0.32,0.03 -0.03,0.11 0.17,0.18 0.24,0.21l0 0z"/>
       <path class="lmb_hrc_fil19" d="M26.55 13.42l0.28 -0.2c0.01,-0.01 0.03,-0.01 0.04,0l0.28 0.2c0.01,0.01 0.02,0.02 0.01,0.04l-0.1 0.32c-0.01,0.02 -0.02,0.03 -0.04,0.03l-0.34 0c-0.02,0 -0.03,-0.01 -0.04,-0.03l-0.1 -0.32c-0.01,-0.01 0,-0.03 0.01,-0.04l0 0z"/>
      </g>
      <g id="lamborghini_logo_9">
       <path id="logo_bg_10" class="lmb_hrc_fil20" d="M26.83 13.75c-0.11,-0.08 -0.16,-0.21 -0.16,-0.35 0,-0.02 0,-0.02 0.02,-0.03 0.04,-0.02 0.1,-0.02 0.16,-0.02 0.06,0 0.12,0.01 0.16,0.02 0.02,0.01 0.02,0.01 0.02,0.03 0,0.14 -0.05,0.27 -0.17,0.35l0 0c0,0.01 -0.01,0.01 -0.01,0.01 0,0 0,0 0,0 0,0 0,0 0,0 0,0 -0.01,0 -0.02,-0.01l0 0z"/>
       <path id="logo_contour_11" class="lmb_hrc_fil21" d="M26.83 13.76c-0.06,-0.05 -0.1,-0.1 -0.13,-0.15 -0.02,-0.07 -0.04,-0.13 -0.04,-0.21 0,-0.01 0,-0.01 0.01,-0.02 0,-0.01 0.01,-0.01 0.02,-0.01 0.02,-0.01 0.04,-0.02 0.07,-0.02 0.03,0 0.06,-0.01 0.09,-0.01 0.03,0 0.06,0.01 0.09,0.01 0.03,0 0.05,0.01 0.08,0.02 0.01,0 0.01,0.01 0.02,0.01 0,0.01 0,0.01 0,0.02 0,0.08 -0.01,0.14 -0.04,0.21 -0.03,0.05 -0.07,0.1 -0.13,0.15l-0.01 0.01 0 0c0,0 0,0 0,0 0,0 -0.01,0 -0.01,0l0 0 0 0c0,0 0,0 -0.01,0 0,0 0,0 0,0l0 0 -0.01 -0.01 0 0zm-0.11 -0.16c0.02,0.06 0.06,0.11 0.12,0.15l0 0c0,0 0.01,0 0.01,0.01 0,0 0,0 0,0l0 0 0 0 0 0c0,0 0,0 0,0 0,-0.01 0.01,-0.01 0.01,-0.01l0 0c0.06,-0.04 0.1,-0.09 0.12,-0.15 0.03,-0.06 0.04,-0.13 0.04,-0.2 0,-0.01 0,-0.01 0,-0.02 0,0 0,0 -0.01,0 -0.02,-0.01 -0.05,-0.02 -0.07,-0.02 -0.03,-0.01 -0.06,-0.01 -0.09,-0.01 -0.03,0 -0.06,0 -0.09,0.01 -0.02,0 -0.05,0.01 -0.07,0.02 -0.01,0 -0.01,0 -0.01,0 0,0.01 0,0.01 0,0.02 0,0.07 0.01,0.14 0.04,0.2l0 0z"/>
       <path id="logo_ox_12" class="lmb_hrc_fil21" d="M26.77 13.67c0.01,0 0.01,-0.01 0.01,-0.01 0,0 0,0 0,-0.01 0,0 0,0 0,-0.01 0,0 0,0 0.01,-0.01 0,0 0,-0.01 0,-0.01 0.01,-0.01 0.01,-0.01 0.01,-0.01 0,-0.01 0,-0.01 0,-0.01 0.01,-0.01 0.01,-0.01 0.01,-0.01 0,0 0,0 0,0.01 0,0.01 0,0.01 0,0.01 0.01,0 0.01,0 0,0 0,0 0,0.01 0,0.01 0,0 0,0.01 -0.01,0.01 0,0 0,0 0,0 0,0.01 -0.01,0.01 -0.01,0.01 0,0 0,0 0,0.01 0,0 0,0 0.01,0 0,0 0,0 0,0 0,0 0,0 0,0 0,0 0.01,0 0.01,0 0,0 0.01,-0.02 0.01,-0.02 0,-0.01 0.01,-0.01 0.01,-0.01 0,0 0,0 0,0 0,-0.01 0.01,-0.01 0.01,-0.01 0,0 0,0 0,0 0,0 0,0.01 -0.01,0.01 0,0 0,0.01 0,0.01 0,0.01 0,0.01 0,0 0,0 0,0 0,0 0,0 0,0 0,0 0,0.01 0.01,0.01 0.01,0.01 0.01,-0.01 0.01,-0.01 0.01,-0.01 0,0 0,-0.01 0,-0.01 0,0 0,0 0,-0.01 0,0 0,-0.01 0.01,-0.01 0,0 0,0.01 0,0.02 0,0 0,0 0.02,0 0,0 0.01,0 0.01,0 0,0 0,0 0,0 0,0 0,-0.01 0,-0.01 0,-0.01 0,-0.01 0.01,-0.01 0,-0.01 0.01,-0.02 0.01,-0.01 0,0 0.01,0 0.01,0 0,0.01 0,0.01 0,0.02 0,0 0,0 0,0 0,0.01 0,0.01 0,0.01 0,0.01 0,0.01 0,0.01 0.01,0.01 0.01,0.01 0.01,0l0 0.01 0 -0.01c0.01,0 0.01,0 0.01,-0.01 0,0 -0.01,0 0,0 0,-0.01 0,-0.01 0,-0.01 -0.01,-0.01 -0.01,-0.01 0,-0.02 0,-0.01 0,-0.01 0,-0.01 -0.01,-0.01 -0.01,-0.01 0,-0.01 0.01,0 0.02,0 0.02,0 0.01,-0.01 0.01,-0.01 0,-0.01 -0.01,0 -0.02,0 -0.02,-0.01l0 -0.01c0,-0.01 0,-0.02 0,-0.03 0,-0.01 0,-0.01 -0.01,-0.02 0,0 0,-0.01 0,-0.01 0,0 0,-0.01 -0.01,-0.01 0,0 0,0 0,0 0.03,-0.05 -0.09,-0.03 -0.08,-0.04 0,-0.01 0.01,-0.01 0.02,0 0.01,0 0.02,0 0.02,0 0.01,0 0.01,-0.01 0,-0.01 0,0 0,0 0,0 -0.01,0 -0.01,0 0,0 0.01,0 0.02,0 0.02,0 0,0 -0.01,0 -0.01,0 -0.01,-0.01 -0.03,-0.01 -0.04,-0.01 -0.01,0.01 -0.02,0.02 -0.01,0.02 0.01,0 0.02,0.01 0.04,0.01 0.01,0 0.05,0 0.03,0.02 -0.01,0 -0.01,0 -0.02,-0.01 -0.02,0 -0.02,0 -0.03,0.01 -0.01,0 -0.02,0.01 -0.02,0.01 -0.02,0.01 -0.02,0.02 -0.02,0.03 0,0.01 -0.01,0.01 -0.01,0.02 -0.01,0.01 -0.01,0.02 -0.01,0.03 0,0.01 0,0.01 -0.01,0.02 0,0.01 0,0.01 0,0.02 0,0.01 0,0.01 0,0.02 0,0 -0.01,0 -0.01,0.01 0,0.01 0,0.01 0,0.01 0,0.01 -0.01,0.01 -0.01,0.01 0,0 0,0 0,0.01 -0.01,0 -0.01,0 -0.01,0.01 0,0 0.01,0 0.01,0l0 -0.01 0 0.01 0 0 0 0c0.01,0 0.01,0 0.01,0l0 0 -0.01 0.01zm0.1 -0.24c-0.01,0 -0.01,-0.01 0,0zm-0.16 -0.01c-0.01,0 -0.02,0 -0.02,0 0,0 0,-0.04 0,-0.04 0,0 0,0 0,0l0 0.05 0.02 0c0,0 0,-0.01 0,-0.01l0 0zm0.3 -0.04c0,0 0,0 -0.01,0l0 0.05 0.01 0c0,0 0,-0.04 0,-0.05zm-0.01 0c-0.01,0 -0.01,0 -0.01,0 0,0 0,0.02 0,0.02 0,0 0,-0.01 -0.01,-0.01 0,-0.02 0,-0.02 -0.01,-0.02l0 0c0,0.01 0,0.05 0,0.05 0,0 0,0 0.01,0 0,0 0,-0.02 0,-0.02 0,0 0,0 0,0.01 0.01,0.02 0.01,0.02 0.01,0.02 0.01,0 0.01,-0.05 0,-0.05l0.01 0zm-0.29 0.04c0.01,0 0.01,0 0.01,0 0,-0.01 0,-0.01 0,-0.01 0.01,0 0.01,0 0.01,0 0,0.01 0,0.01 0,0.01 0.01,0 0.01,0 0.01,0 0,0 0,-0.01 -0.01,-0.02 0,-0.01 0,-0.02 0,-0.02 0,-0.01 0,-0.01 -0.01,-0.01 0,0 0,0 0,0 0,0 -0.01,0.05 -0.01,0.05 0,0.01 0,0.01 0,0l0 0 0 0zm0.01 -0.03c0,0 0.01,0.01 0,0.01 0,0 0,-0.01 0,-0.01zm0.24 -0.02c0,0 -0.01,0 -0.01,0 0,0 0,0.04 0,0.05 0,0 0.01,0 0.01,0 0,0 0,-0.05 0,-0.05l0 0zm-0.21 0.04c0,-0.01 0,-0.01 0,-0.02 0.01,0.01 0.01,0.02 0.01,0.02 0,0 0.01,-0.02 0.01,-0.02l0 0.02 0.01 0c0,-0.01 0,-0.05 0,-0.05 0,0 -0.01,0 -0.01,0 0,0 0,0 -0.01,0.02l0 0.01 0 -0.01c-0.01,-0.01 -0.01,-0.01 -0.01,-0.01 0,0 -0.01,0 -0.01,0 0,0 0,0.04 0,0.04 0,0.01 0,0.01 0.01,0.01 0,0 0,-0.01 0,-0.01l0 0zm0.2 -0.04c-0.01,0 -0.01,-0.01 -0.01,-0.01l0 0.01c0,0.01 0,0.01 -0.01,0.01 0,0 0,0 0,-0.01l0 -0.01 -0.01 0 0 0.02c0,0.03 0,0.03 0,0.03 0.01,0 0.01,0 0.01,-0.01l0 -0.01c0,0 0,0 0.01,0 0,0 0,0.01 0,0.01l0 0.01c0,0 0,0 0,0.01 0.01,0 0.01,-0.05 0,-0.05l0.01 0zm-0.14 0.04c0,-0.01 0.01,-0.02 0,-0.02 0,-0.01 0,-0.01 0,-0.01 0,0 0,-0.01 0,-0.02 0,0 0,0 -0.01,0l-0.01 0 0 0.05 0.01 0c0,0 0.01,0 0.01,0l0 0zm-0.01 -0.01c0,0 0,-0.01 0,-0.01 0,0 0,0 0,0 0.01,0 0.01,0.01 0,0.01 0,0 0,0 0,0zm0 -0.03c0,0 0,0 0,0 0,0 0,0 0,0 0,0.01 0,0.01 0,0.01 -0.01,0 -0.01,0 -0.01,-0.01l0.01 0zm0.11 0.02l0 -0.01 0 0c-0.01,0 -0.01,0 -0.01,0.01 0,0 0,0 0,0 0.01,0 0.01,0.01 0,0.01 0,0 -0.01,0 -0.01,-0.02 0,-0.01 0,-0.01 0.01,-0.01 0,0 0,0.01 0.01,0 0,0 0,0 0,0 0,0 0,0 0,0 0,-0.01 -0.02,-0.01 -0.02,0 -0.01,0 -0.01,0.01 -0.01,0.02 0.01,0.02 0.03,0.02 0.03,0l0 0zm-0.07 0.02c0.01,-0.01 0.01,-0.01 0.01,-0.02 0,-0.02 0,-0.03 -0.01,-0.03 -0.01,0 -0.01,0 -0.01,0 -0.01,0.01 -0.01,0.01 -0.01,0.03 0,0 0,0.01 0,0.01 0.01,0.01 0.02,0.01 0.02,0.01l0 0 0 0zm-0.01 -0.01c0,-0.01 0,-0.03 0,-0.03 0.01,-0.01 0.01,0.02 0.01,0.03 0,0 -0.01,0 -0.01,0zm0.05 0l-0.01 -0.01c0.01,-0.01 0.01,-0.01 0.01,-0.02 0,-0.01 -0.02,-0.01 -0.03,-0.01l0 0.05 0.01 0c0,-0.05 0.01,0 0.02,0 0.01,0 0,0 0,-0.01l0 0zm-0.02 -0.03c0.01,0 0.01,0 0.01,0 0,0.01 0,0.01 -0.01,0.01 0,-0.01 0,-0.01 0,-0.01l0 0z"/>
      </g>
     </g>
     <circle id="under_shadow_13" class="lmb_hrc_fil25" cx="26.85" cy="13.53" r="3.06"/>
    </g>
    <path id="inside" class="lmb_hrc_fil26" d="M14.3 9.3l0.78 -1.7 2.53 -0.24 2.45 0.33 3.18 0.95c0,0 2.88,1.13 2.82,1.12 -0.06,-0.01 -4.33,1.67 -4.33,1.67l-6.68 -0.77 -0.75 -1.36zm9 0.01c-0.08,0.17 -0.19,0.46 -0.21,0.74l-0.2 0.01 -0.07 -0.91 0.48 0.16zm-7.86 0.11l6.81 0.6 -0.1 -1.1c0,0 -1.31,-0.52 -2.58,-0.77 -1.26,-0.26 -3.34,-0.49 -3.97,-0.19 -0.54,0.26 -0.69,0.81 -0.86,1.18l0.7 0.28z"/>
    <path id="paint" class="lmb_hrc_fil27" style="mask:url(#id10)" d="M29.69 15.04l3.44 -0.2c0,0 0.63,-0.83 1.1,-1.63l0.14 -0.16 0.08 0.01c0,0 0.05,0 -0.08,-0.12 -0.12,-0.12 -1.59,-1.49 -4.74,-2.58l-1.73 -0.59 -0.38 0.01 -1.06 -0.14c0,0 -0.05,0.05 -0.27,0.03 -0.21,-0.01 -0.59,0 -0.59,0l-0.23 -0.01c0,0 -1.7,0.46 -2.13,0.56 0,0 -0.36,0.03 -0.84,-0.02 -0.49,-0.05 -7.01,-0.64 -7.01,-0.64 0,0 -3.97,-1.27 -5.13,-1.79 0,0 -4.62,0.43 -8.15,1.16 0,0 -0.18,-0.01 -0.3,-0.09 -0.11,-0.09 -0.28,-0.3 -0.98,-0.16 0,0 -0.12,0.01 -0.09,0.18 0.04,0.18 0.11,0.49 0.11,0.49 0,0 0.47,0.09 0.6,0.24 0.13,0.15 0.88,1.05 0.88,1.05 0,0 -1.01,0.09 -1.27,0.06l-0.17 0.17c0,0 0.7,1.51 1.02,2.07 0,0 0.38,0.34 0.64,0.39 -0.03,-1.82 1.97,-3.35 3.81,-2.9 2.74,0.67 2.49,3.4 2.49,3.4 -0.07,0.29 -0.07,0.68 -0.07,0.87l15.14 0.24c-0.27,-2.07 0.38,-4.3 2.99,-4.28 1.6,0.01 2.91,1.33 2.89,3.06 0,0.47 -0.02,0.81 -0.11,1.32zm1.65 -0.66c0,0 0.92,-1.01 1.3,-1.36l0.52 0.13c0,0 0.13,0.04 -0.01,0.22 -0.14,0.18 -0.97,1.14 -0.97,1.14l-0.2 0.09 -0.64 -0.22zm-31.19 -1.54c0.77,0.16 1.66,0.4 2.4,0.58 -0.02,0.43 0.07,0.85 0.2,1.43 0,0 -0.83,-0.23 -1.56,-0.48l-1.06 -1.4c-0.05,-0.07 -0.06,-0.15 0.02,-0.13z"/>
    <g>
     <polygon class="lmb_hrc_fil28" style="mask:url(#id12)" points="0.24,13.12 0.65,13.16 0.96,13.3 1.95,14.29 1.04,14.17 "/>
     <path class="lmb_hrc_fil29" d="M0.85 9.35c0.18,0.02 0.59,0.09 0.72,0.29 0.1,0.15 0.8,1.06 0.8,1.06 -0.29,0 -0.58,-0.01 -0.87,-0.01 -0.22,-0.41 -0.49,-0.92 -0.65,-1.34z"/>
     <path class="lmb_hrc_fil3" d="M32.58 12.8c-0.06,0.04 -1.71,1.62 -1.71,1.62l1.08 0.38 0.52 -0.26 1.19 -1.48 -1.08 -0.26z"/>
     <path class="lmb_hrc_fil30" d="M20.47 10.14c-0.03,0.08 -0.11,0.12 -0.19,0.09 -0.09,-0.03 -0.13,-0.11 -0.1,-0.19l0.46 -1.34c0.03,-0.08 0.12,-0.12 0.2,-0.09 0.08,0.03 0.12,0.11 0.09,0.19l-0.26 0.76c0.06,0.01 0.15,0.03 0.23,0.07l0.13 -0.39 0.11 0.04 -0.13 0.4c0.08,0.06 0.16,0.14 0.18,0.26l-0.66 0.01 -0.06 0.19z"/>
     <polygon class="lmb_hrc_fil31" points="32.61,13.02 32.74,13.02 32.74,13.4 31.62,14.53 31.28,14.42 "/>
     <path class="lmb_hrc_fil32" d="M31.8 13.79c-0.02,0 -0.04,-0.02 -0.04,-0.04 0,-0.02 0.02,-0.04 0.04,-0.04l0.49 0c0.02,0 0.04,0.01 0.04,0.03 0,0.03 -0.02,0.04 -0.04,0.04l-0.49 0.01zm-0.42 0.43c-0.02,0 -0.04,-0.02 -0.04,-0.04 0,-0.02 0.02,-0.04 0.04,-0.04l0.49 0c0.02,0 0.03,0.01 0.03,0.04 0,0.02 -0.01,0.03 -0.03,0.03l-0.49 0.01zm1.08 -1.14l0.28 0.32 -0.62 0.01 0.34 -0.33z"/>
    </g>
    <path id="light_x0020_and_x0020_shadow" class="lmb_hrc_fil33" style="mask:url(#id14)" d="M5.78 10.07c1.94,0.05 3.63,1.58 3.25,4.28l-0.24 -0.01c0,-0.17 0.02,-0.35 0.06,-0.51 0,0 0.25,-2.73 -2.49,-3.4 -1.84,-0.45 -3.84,1.08 -3.86,2.88 -0.1,-0.02 -0.16,-0.05 -0.26,-0.12 0.17,-1.81 1.59,-3.16 3.54,-3.12z"/>
    <g id="_4">
     <path class="lmb_hrc_fil26" style="mask:url(#id16)" d="M30.11 13.77c0.1,-1.84 -1.34,-3.41 -3.19,-3.45 -1.86,-0.05 -3.37,1.45 -3.35,3.31 0.01,0.62 0.02,1.03 0.03,1.31l0.32 0c-0.27,-2.07 0.38,-4.3 2.99,-4.28 1.6,0.01 2.91,1.33 2.89,3.06 0,0.47 -0.02,0.81 -0.11,1.32l0.3 -0.02c0.03,-0.28 0.07,-0.69 0.12,-1.25z"/>
     <path class="lmb_hrc_fil3" style="mask:url(#id18)" d="M0.94 9.01l-0.14 -0.27c0,0 -0.02,-0.06 0.05,-0.08 0.07,-0.01 0.26,-0.03 0.54,0 0,0 0.12,0.01 0.2,0.06 0.08,0.06 0.29,0.18 0.42,0.21 0,0 -0.47,0.1 -0.7,0.11 -0.23,0 -0.37,-0.03 -0.37,-0.03z"/>
     <path class="lmb_hrc_fil34" style="mask:url(#id20)" d="M2.01 9.29l2.58 0.95c0,0 1.83,-0.66 3.32,0.67 0,0 0.15,0.11 0.34,0.33l4.3 -0.76c-0.02,-0.09 -0.03,-0.19 -0.03,-0.27 0,0 -2.55,-0.48 -4.37,-1.3 0,0 -2.53,-0.22 -6.14,0.38z"/>
     <path class="lmb_hrc_fil3" style="mask:url(#id22)" d="M7.02 10.32c1.73,0.74 2.08,2.25 2.06,3.49 0,0 2.61,-0.62 3.33,-0.67 0.72,-0.05 1.44,0.05 1.44,0.05 0,0 -1.08,-1.66 -1.3,-2.71l-2.4 -0.85c-1.47,-0.19 -2.43,0.01 -3.54,0.56l0.41 0.13z"/>
     <path class="lmb_hrc_fil28" style="mask:url(#id24)" d="M1.41 9.39l0.25 -0.15 2.93 1c0,0 -1.12,0.32 -1.63,1.1l-1.29 -1.67c0,0 -0.09,-0.14 -0.26,-0.28z"/>
     <path class="lmb_hrc_fil28" style="mask:url(#id26)" d="M0.82 9.14c0,0 0.02,0.04 0.13,0.08 0.1,0.04 0.46,0.17 0.46,0.17l0.25 -0.15 -0.72 -0.23 -0.12 0.13z"/>
     <path class="lmb_hrc_fil28" style="mask:url(#id28)" d="M0.85 8.66c0,0 -0.14,0.01 -0.13,0.12 0.01,0.1 0.11,0.37 0.11,0.37l0.11 -0.13 -0.14 -0.28c0,0 -0.03,-0.05 0.05,-0.08z"/>
     <path class="lmb_hrc_fil28" style="mask:url(#id30)" d="M2.53 10.78c0,0 -0.86,0.09 -1.61,0.07l0.11 -0.15c0,0 1.01,-0.02 1.29,-0.06l0.21 0.14z"/>
     <path class="lmb_hrc_fil28" style="mask:url(#id32)" d="M2.24 13.16c0,0 -0.12,-0.05 -0.33,-0.2l-0.02 -0.04 -0.99 -2.04c0,0 0.04,-0.05 0.08,-0.09 0.04,0.01 0.13,0.06 0.26,0.07 0.39,0 1.03,-0.04 1.29,-0.08l0.43 0.56c-0.43,0.51 -0.64,1.09 -0.72,1.82z"/>
     <path class="lmb_hrc_fil28" style="mask:url(#id34)" d="M12.04 13.5c0,0 -2.21,0.12 -2.96,0.31 0,0 3.3,-0.83 3.91,-0.68 0,0 -0.38,0.1 -0.95,0.37z"/>
     <path class="lmb_hrc_fil28" style="mask:url(#id36)" d="M8.79 14.34l2.09 0.05c0,0 0.51,-0.55 1.16,-0.89 0,0 -1.78,0.12 -2.96,0.31l-0.22 -0.01c0,0 -0.06,0.16 -0.07,0.54z"/>
     <path class="lmb_hrc_fil3" style="mask:url(#id38)" d="M8.78 14.7l0.01 -0.36 2.09 0.05c0,0 0.38,0.25 0.49,0.26 0.12,0.02 12.54,0.29 12.54,0.29l0.02 0.08 -15.15 -0.32z"/>
     <path class="lmb_hrc_fil28" style="mask:url(#id40)" d="M14.37 13.87c0,0 -0.43,-0.5 -0.55,-0.68 0,0 -0.72,-0.07 -0.89,-0.07l0.87 0.92 0.89 0.07c0,0 -0.17,-0.06 -0.32,-0.24z"/>
     <polygon class="lmb_hrc_fil26" style="mask:url(#id42)" points="14.02,14.31 13.8,14.04 14.69,14.11 23.88,14.69 23.97,14.96 "/>
     <path class="lmb_hrc_fil28" style="mask:url(#id44)" d="M11.4 14.62c0,0 0.87,-0.11 1.48,-0.14 0.62,-0.03 0.89,-0.04 0.89,-0.04 0,0 0.21,-0.01 0.25,-0.13 0,0 9.89,0.55 9.89,0.56 -0.01,0.01 0,0.07 0,0.07 0,0 -8.12,-0.28 -9.68,-0.23l-2.51 -0.04c0,0 -0.22,-0.01 -0.32,-0.05z"/>
     <path class="lmb_hrc_fil28" style="mask:url(#id46)" d="M8.26 8.82c0,0 1.7,-0.7 2.15,-0.74l0.16 0.14c0,0 -1.19,0.33 -2.01,0.71l-0.3 -0.11z"/>
     <path class="lmb_hrc_fil28" style="mask:url(#id48)" d="M9.92 8.81l0.65 -0.59 -0.16 -0.14c0,0 -2.96,0.02 -4.05,0.21l-0.05 -0.05 3.86 -0.48c0,0 0.84,0.36 1.66,0.64 1.18,0.41 2.37,0.8 3.56,1.17 -1.85,-0.17 -3.63,-0.32 -5.47,-0.76z"/>
     <path class="lmb_hrc_fil28" style="mask:url(#id50)" d="M9.11 9.12l0.81 -0.31c0,0 2.9,0.54 3.99,0.62 0,0 -0.56,0.16 -1.23,0.61 0,0 -1.74,-0.25 -3.57,-0.92z"/>
     <path class="lmb_hrc_fil28" style="mask:url(#id52)" d="M23.38 10.62c-1.15,0.47 -1.39,0.73 -2.71,0.56 -1.15,-0.16 -8.18,-0.98 -8.18,-0.98l0.18 -0.16c0,0 0.92,-0.56 1.22,-0.61l8.52 0.8c0,0 0.57,0.05 0.78,0.03 0,0 0.16,0.23 0.19,0.36z"/>
     <path class="lmb_hrc_fil28" style="mask:url(#id54)" d="M25.57 9.66c0,0 -1.71,0.77 -2.19,0.96l-0.19 -0.36c0,0 0.49,-0.1 0.8,-0.19 0.32,-0.08 1.49,-0.44 1.49,-0.44l0.09 0.03z"/>
     <path class="lmb_hrc_fil28" style="mask:url(#id56)" d="M32.94 12.66c0,0 -2.71,-0.38 -3.24,-0.47 0,0 -0.36,-0.88 -1.31,-1.38 0,0 -0.95,-0.47 -2.12,-0.34 0,0 0.71,-0.38 1.55,-0.24 1.8,0.29 3.78,1.23 5.12,2.43z"/>
     <path class="lmb_hrc_fil28" style="mask:url(#id58)" d="M29.97 14.55c0,0 0.27,-1.56 -0.27,-2.36l3.09 0.35c-0.6,0.62 -1.32,1.33 -1.92,1.88l-0.74 0.13 -0.16 0z"/>
     <path class="lmb_hrc_fil28" style="mask:url(#id60)" d="M34.09 13.06c0,0 -0.73,-0.29 -1.15,-0.4 0,0 -0.67,-0.54 -0.83,-0.65l0.77 0.21c0,0 0.05,0.01 0.05,-0.03 0,0 0.5,0.22 1.16,0.87z"/>
     <path class="lmb_hrc_fil28" style="mask:url(#id62)" d="M33.23 13.25l-0.7 -0.2 0.41 -0.39 1 0.34c0,0 0.06,0.08 0.01,0.15l-0.72 0.1z"/>
     <path class="lmb_hrc_fil28" style="mask:url(#id64)" d="M32.1 14.56l1.03 -1.15c0,0 0.1,-0.08 0.1,-0.16l0.72 -0.1 -0.87 1.41c0,0 -0.03,0.06 -0.08,0.09 0,0 -0.35,-0.17 -0.9,-0.09z"/>
     <path class="lmb_hrc_fil3" style="mask:url(#id66)" d="M31.94 14.62l0.2 0.08 0.86 -0.05c0,0 -0.35,-0.18 -0.9,-0.09l-0.16 0.06z"/>
     <path class="lmb_hrc_fil28" style="mask:url(#id68)" d="M32.74 11.81c0,0 0.19,0.26 0.2,0.38 0,0 0.57,0.28 1.15,0.87l0.32 -0.01c0,0 0.05,-0.04 -0.04,-0.1 -0.08,-0.06 -0.73,-0.69 -1.63,-1.14z"/>
     <path class="lmb_hrc_fil28" style="mask:url(#id70)" d="M26.24 9.68l-0.69 -0.01c0,0 -2.52,1.11 -3.01,1.29 -0.39,0.17 -0.92,0.37 -1.87,0.22 2.51,0.38 2.87,1.18 2.95,1.83l0.12 -0.47c0,0 0.29,-0.95 1.14,-1.58 1.23,-0.89 2.59,-0.9 3.62,-0.59 -1.24,-0.34 -1.72,-0.5 -2.26,-0.69z"/>
     <path class="lmb_hrc_fil35" d="M19.97 7.55l-0.13 0.2c1.91,0.52 3.74,1.07 5.73,1.91l0.64 0.02c0,0 -3.32,-1.49 -6.24,-2.13z"/>
     <polygon class="lmb_hrc_fil36" points="22.41,8.66 22.52,10.24 22.74,10.25 22.61,8.72 "/>
     <path class="lmb_hrc_fil37" d="M20.27 7.31l-0.31 0.24c2.54,0.66 3.92,1.21 6.25,2.13 0,0 0.17,-0.02 0.27,-0.03 0,0 -3.09,-1.47 -6.21,-2.34z"/>
    </g>
    <path id="roof" class="lmb_hrc_fil38" d="M10.42 7.71l2.64 -0.49c0,0 0.06,-0.2 0.24,-0.22 0.18,-0.01 1.31,-0.09 1.31,-0.09l1.94 -0.06 2.02 0.14 1.72 0.33 -0.33 0.23 -0.18 0.32c0,0 -2.12,-0.32 -3.46,-0.25 0,0 -0.79,0.03 -1.03,0.18 -0.23,0.16 -0.36,0.4 -0.48,0.66 -0.12,0.26 -0.37,0.79 -0.37,0.79 0,0 -3.61,-1.15 -4.18,-1.45l0.16 -0.09z"/>
    <g id="_3">
     <path class="lmb_hrc_fil28" style="mask:url(#id72)" d="M22.41 8.69c0,0 -1.86,-0.67 -2.87,-0.8 -1.02,-0.12 -2.89,-0.21 -3.46,-0.17 -0.56,0.04 -0.9,0.15 -1.12,0.66l7.45 0.31z"/>
     <path class="lmb_hrc_fil39" d="M1.46 13.5l0.8 1.12c0,0 0.47,0.14 0.47,0.14 0,0 -0.18,-0.65 -0.21,-0.86l-1.06 -0.4z"/>
     <path class="lmb_hrc_fil40" d="M0.96 12.88l0.5 0.62 1.06 0.4c0,0 -0.05,-0.47 -0.01,-0.59 0,0 -0.84,-0.21 -1.55,-0.43z"/>
     <path class="lmb_hrc_fil41" d="M2.79 12.16l-0.1 0.24c0,0 -0.73,-0.38 -0.85,-0.47 0,0 -0.11,-0.11 -0.06,-0.18 0.05,-0.07 0.2,0.04 0.2,0.04l0.81 0.37z"/>
     <path class="lmb_hrc_fil28" style="mask:url(#id74)" d="M13.85 13.19c0,0 0.61,0.83 0.78,0.92 0,0 0.18,0.01 0.44,0.03 0.27,0.01 8.81,0.55 8.81,0.55l-0.01 -0.23 -10.02 -1.27z"/>
     <path class="lmb_hrc_fil3" style="mask:url(#id76)" d="M9.11 9.12l0.81 -0.31c0,0 2.9,0.54 3.99,0.62 0,0 -0.56,0.16 -1.23,0.61 0,0 -1.74,-0.25 -3.57,-0.92z"/>
     <path class="lmb_hrc_fil42" style="mask:url(#id78)" d="M23.3 9.31l1.23 0.39 -0.15 0.12 -1.29 0.23c0.03,-0.31 0.08,-0.49 0.21,-0.74z"/>
     <path class="lmb_hrc_fil3" style="mask:url(#id80)" d="M12.7 10.06c0,0 0.21,0.19 0.99,0.28 0.79,0.09 6.95,0.83 6.95,0.83 0,0.01 0.84,0.16 1.53,-0.06 0.89,-0.32 1.63,-0.73 2.13,-0.89 0.41,-0.03 0.8,0.07 1.09,0.42 -1.81,0.9 -1.89,2.63 -1.81,3.77l-0.22 0 -9.51 -1.22c0,0 -1.19,-1.92 -1.3,-2.71l0.15 -0.42z"/>
    </g>
    <g id="handle">
     <polygon class="lmb_hrc_fil28" style="mask:url(#id82)" points="13.07,10.46 13,10.67 15.02,10.91 14.81,10.66 "/>
     <polygon class="lmb_hrc_fil43" style="mask:url(#id84)" points="13,10.67 13.17,10.88 14.94,11.1 15.02,10.91 "/>
    </g>
    <g id="_2">
     <path class="lmb_hrc_fil28" style="mask:url(#id86)" d="M8.15 8.91l0.11 -0.09c0,0 2.77,1.03 4.44,1.24l-0.14 0.45c-0.04,-0.07 -3.87,-1.33 -4.41,-1.6z"/>
     <path class="lmb_hrc_fil26" d="M10.22 8.88l0.35 -0.66c0,0 -1.5,0.44 -2,0.71l0.78 0.27 0.87 -0.32z"/>
     <polygon class="lmb_hrc_fil26" style="mask:url(#id88)" points="10.53,8.94 9.61,9.28 9.35,9.2 10.22,8.88 "/>
     <path class="lmb_hrc_fil3" d="M12.95 13.14c0,0 0.97,0.98 1.07,1.17 0,0 -0.02,0.13 -0.25,0.13 -0.23,0.01 -1.59,0.03 -2.41,0.21 0,0 -0.35,-0.15 -0.48,-0.26 0,0 0.88,-0.97 2.07,-1.25z"/>
     <path class="lmb_hrc_fil28" style="mask:url(#id90)" d="M11.93 14.11l1.73 0.01c0,0 0.02,0 0.02,-0.03 0,-0.02 -0.02,-0.03 -0.03,-0.03 -0.02,0 -1.37,-0.19 -1.37,-0.19l-0.46 0.16 0.11 0.08z"/>
     <path class="lmb_hrc_fil3" d="M30.37 11.03c0,0 1.15,0.52 1.74,0.98l0.78 0.21c0.03,0.01 0.05,-0.02 0.04,-0.05 -0.04,-0.11 -0.08,-0.2 -0.19,-0.36 0,0 -1.28,-0.52 -2.37,-0.78z"/>
    </g>
    <g id="light">
     <path class="lmb_hrc_fil41" d="M31.53 11.63c0.21,0.13 0.41,0.26 0.58,0.38l0.58 0.16 0 -0.04c-0.26,-0.08 -0.73,-0.16 -0.72,-0.49l-0.44 -0.01 0 0zm1.06 0.12c-0.24,-0.09 -0.72,-0.27 -1.25,-0.45l-0.01 0.08c0.35,0.07 0.78,0.22 1.19,0.44l0.07 -0.07z"/>
     <path class="lmb_hrc_fil44" d="M32.13 11.67c0.02,0 0.03,0.05 0.03,0.11 0,0.06 -0.01,0.12 -0.02,0.12 -0.02,0 -0.03,-0.05 -0.03,-0.12 0,-0.06 0.01,-0.11 0.02,-0.11z"/>
     <path class="lmb_hrc_fil44" d="M32.25 11.71c0.01,0 0.02,0.05 0.02,0.12 0,0.06 -0.01,0.11 -0.02,0.11 -0.01,0 -0.02,-0.05 -0.03,-0.11 0,-0.07 0.01,-0.12 0.03,-0.12z"/>
     <path class="lmb_hrc_fil44" d="M32.37 11.77c0.02,0 0.03,0.05 0.03,0.12 0,0.06 -0.01,0.11 -0.02,0.11 -0.02,0 -0.03,-0.05 -0.03,-0.11 0,-0.07 0.01,-0.12 0.02,-0.12z"/>
    </g>
    <g id="_1">
     <path class="lmb_hrc_fil45" d="M14.08 9.15l-0.18 0.3 -0.02 0.01c0,0 -0.81,0.34 -1.17,0.6l-0.11 0.44c0.03,0.13 0.44,1.46 1.28,2.67l0 0c0,0.01 0.22,0.39 0.74,0.9l8.94 0.56c0.02,-0.37 0.16,-3.28 -0.22,-3.99l-0.18 -0.38 0.08 -0.01 0.17 0.35c0.41,0.78 0.23,4.06 0.23,4.07l0 0.04 -9.04 -0.57 -0.03 -0.01c-0.51,-0.5 -0.74,-0.89 -0.75,-0.92 -0.89,-1.28 -1.3,-2.69 -1.3,-2.7l0 -0.02 0.12 -0.46 0.01 -0.02c0.34,-0.26 1.09,-0.57 1.19,-0.61l0.17 -0.27 0.07 0.02z"/>
     <path class="lmb_hrc_fil46" d="M19.77 7.87c0,0 2.63,0.71 5.54,1.81l0.26 -0.02c0,0 -1.93,-0.86 -5.72,-1.9l-0.08 0.11z"/>
     <path class="lmb_hrc_fil47" d="M9.41 14.22c-0.04,-0.01 -0.08,-0.04 -0.07,-0.08 0,-0.05 0.03,-0.08 0.07,-0.08l1.32 0.03c0.04,0 0.08,0.04 0.08,0.08 -0.01,0.04 -0.04,0.08 -0.08,0.08l-1.32 -0.03z"/>
     <path class="lmb_hrc_fil28" d="M29.48 12.28c0.05,0.1 0.08,0.19 0.12,0.29l0.91 0.06c0,0 0.08,0.01 0.1,-0.08 0.01,-0.08 -0.07,-0.09 -0.09,-0.1l-1.04 -0.17z"/>
     <path class="lmb_hrc_fil3" d="M33.64 14.13l0.88 0.36 -0.03 0.11 0.13 0.08c0,0 0.06,0.07 -0.2,0.1 -0.26,0.04 -1.17,0.19 -1.17,0.19 0,0 -2.98,0.17 -3.58,0.2l0.02 -0.13c0,0 2.46,-0.13 3.35,-0.19 0,0 0.11,-0.02 0.18,-0.13 0.08,-0.12 0.42,-0.59 0.42,-0.59z"/>
     <path class="lmb_hrc_fil48" style="mask:url(#id92)" d="M29.67 15.15l3.59 -0.19c0.03,0 0.69,-0.12 1.08,-0.18 0.09,-0.02 0.16,-0.03 0.21,-0.05 0.04,-0.02 0.06,-0.03 0.06,-0.04l0.01 -0.01c0.04,0.02 0.01,0.06 -0.05,0.08 -0.05,0.02 -0.13,0.04 -0.23,0.05 -0.39,0.07 -1.07,0.19 -1.08,0.19l-3.6 0.19 0.01 -0.04z"/>
     <polygon class="lmb_hrc_fil26" points="8.79,15.08 8.78,14.7 23.93,15.02 23.94,15.08 "/>
     <polygon class="lmb_hrc_fil28" style="mask:url(#id94)" points="8.78,14.7 16.93,15.08 8.79,15.08 "/>
     <path class="lmb_hrc_fil3" d="M1.15 9.81c0,0 -0.21,0.01 -0.23,0.05 -0.02,0.04 -0.01,0.07 0.02,0.08 0.03,0.02 0.2,0.13 0.43,0.22 0,0 0.01,0.05 -0.01,0.08 -0.01,0.03 -0.3,0.46 -0.3,0.46l1.07 -0.04 -0.4 -0.58 -0.58 -0.27z"/>
     <path class="lmb_hrc_fil28" style="mask:url(#id96)" d="M1.47 10.14l-0.49 -0.23c0,0 -0.1,-0.04 -0.02,-0.07 0,0 0.12,-0.03 0.19,-0.03l0 0.04c0,0 -0.08,0.02 0.03,0.07 0.1,0.05 0.41,0.2 0.41,0.2 -0.01,0 -0.12,0.02 -0.12,0.02z"/>
     <path class="lmb_hrc_fil49" d="M1.06 10.7l-0.22 0c0,0 0.05,-0.57 0.19,-0.7l0.41 0.19c0,0 -0.21,0.23 -0.38,0.51z"/>
     <path class="lmb_hrc_fil3" d="M2.05 13.21l-0.93 -0.13 -0.47 -0.23 -0.25 -2.06 0.51 -0.09c-0.03,0.1 -0.01,0.16 0,0.22l1.14 2.29z"/>
     <path class="lmb_hrc_fil28" d="M0.98 12.89c0.31,0 0.61,0.01 0.92,0.02 0.06,0.1 0.5,0.37 0.61,0.4 0,0 -1.07,-0.26 -1.53,-0.42z"/>
     <path class="lmb_hrc_fil46" style="mask:url(#id98)" d="M1.25 12.05l0.27 0.08c0.05,0.12 0.1,0.22 0.11,0.24 -0.06,-0.01 -0.6,-0.16 -0.85,-0.28 -0.1,-0.04 -0.12,-0.09 -0.11,-0.12 0.01,-0.03 0.07,-0.13 0.39,-0.13l0.03 0.09c0.03,0.05 0.04,0.08 0.16,0.12z"/>
     <path class="lmb_hrc_fil46" style="mask:url(#id100)" d="M1.23 12.04l0.29 0.09c-0.1,-0.2 -0.22,-0.44 -0.22,-0.44l-0.34 -0.11 0.13 0.35c0.01,0.03 0.06,0.09 0.14,0.11z"/>
     <path class="lmb_hrc_fil50" style="mask:url(#id102)" d="M0.96 11.58c0.12,0.04 0.2,0.06 0.34,0.11l-0.39 -0.77c-0.02,-0.08 -0.02,-0.14 0,-0.22 -0.15,0.03 -0.28,0.02 -0.31,0.1 -0.06,0.17 0.25,0.64 0.36,0.78z"/>
     <path class="lmb_hrc_fil28" style="mask:url(#id104)" d="M0.9 10.87l-0.31 -0.04c0,0 0,-0.06 0.06,-0.08l0.33 0.03 -0.08 0.09z"/>
     <path class="lmb_hrc_fil28" style="mask:url(#id106)" d="M0.67 11.99c0,0 0,0.07 0.17,0.13 0.18,0.06 0.79,0.25 0.79,0.25l0.02 0.04c0,0 -0.64,-0.19 -0.82,-0.26 -0.18,-0.08 -0.16,-0.16 -0.16,-0.16z"/>
     <path class="lmb_hrc_fil28" style="mask:url(#id108)" d="M1.51 12.13l-0.28 -0.09c0,0 -0.12,-0.03 -0.14,-0.11 0,0 -0.02,0.09 0.08,0.13 0.09,0.04 0.37,0.12 0.37,0.12 0,-0.01 -0.03,-0.05 -0.03,-0.05z"/>
     <path class="lmb_hrc_fil3" d="M0.6 12.44c0,0 -0.23,0.02 -0.36,0.07 -0.13,0.05 -0.13,0.17 -0.07,0.24 0.05,0.08 0.29,0.32 0.29,0.32 0,0 0.4,0.18 0.55,0.37 0.15,0.19 1.25,1.18 1.25,1.18l-0.8 -1.12 -0.34 -0.42 -0.47 -0.23 -0.05 -0.41z"/>
     <path class="lmb_hrc_fil28" style="mask:url(#id110)" d="M0.2 12.66c0.22,0.22 0.73,0.18 1.08,0.67 0.14,0.19 0.98,1.29 0.98,1.29 0,0 -0.48,-0.68 -0.8,-1.12 -0.2,-0.29 -0.3,-0.51 -0.66,-0.65 -0.21,-0.08 -0.53,-0.35 -0.36,-0.37 -0.07,0 -0.35,0.07 -0.24,0.18z"/>
    </g>
    <path id="window_glass" class="lmb_hrc_fil51" style="mask:url(#id112)" d="M14.47 9.26l0.5 -0.89c0,0 0.21,-0.64 1,-0.66 0.78,-0.02 3.65,-0.2 6.44,0.95l0.11 1.57 -7.13 -0.66 -0.92 -0.31zm8.14 -0.53c0.94,0.32 1.79,0.62 2.7,0.95l-2.07 0.54c0,0 -0.39,0.02 -0.5,0l-0.13 -1.49z"/>
    <g id="view_glass">
     <path class="lmb_hrc_fil27" d="M21.18 10.67c0,0 -0.04,0.16 0.01,0.32 0,0 0.42,0.11 0.88,-0.07 0,0 0.4,-0.17 0.46,-0.33l-0.1 -0.09 0 -0.04c0,0 0.49,-0.47 0.81,-0.67 0.12,-0.08 0.17,-0.05 0.05,-0.16 -0.08,-0.07 -0.23,-0.17 -0.54,-0.25 -0.53,-0.13 -1.21,-0.17 -1.74,-0.19l-0.16 0.06c0,0 -0.08,0.13 -0.08,0.4 0.01,0.26 0.2,0.46 0.2,0.46l0.33 -0.01c0.16,0.1 0.25,0.11 0.44,0.14l-0.56 0.43z"/>
     <path class="lmb_hrc_fil3" style="mask:url(#id114)" d="M20.78 9.53l0.31 0c-0.01,0.3 0.21,0.57 0.21,0.57l-0.33 0.01c0,0 -0.19,-0.2 -0.2,-0.46 0,-0.05 0.01,-0.09 0.01,-0.12z"/>
     <path class="lmb_hrc_fil3" style="mask:url(#id116)" d="M20.78 9.53l0.31 0c0.01,-0.08 0.02,-0.16 0.06,-0.24l0.18 -0.09c-0.11,0 -0.22,-0.01 -0.32,-0.01l-0.16 0.06c0,0 -0.05,0.09 -0.07,0.28z"/>
     <path class="lmb_hrc_fil28" style="mask:url(#id118)" d="M20.78 9.53l0.31 0c-0.01,0.3 0.21,0.57 0.21,0.57l-0.33 0.01c0,0 -0.19,-0.2 -0.2,-0.46 0,-0.05 0.01,-0.09 0.01,-0.12z"/>
     <path class="lmb_hrc_fil28" style="mask:url(#id120)" d="M22.54 9.68c0,0 -0.7,-0.43 -1.39,-0.38 -0.05,0.09 -0.07,0.18 -0.05,0.36l1.44 0.02z"/>
     <path class="lmb_hrc_fil28" style="mask:url(#id122)" d="M22.54 9.68c-0.32,0.21 -0.86,0.48 -1.25,0.42 0,0 -0.16,-0.16 -0.19,-0.44l1.44 0.02z"/>
     <path class="lmb_hrc_fil3" style="mask:url(#id124)" d="M23.27 9.77c0.01,-0.01 0.08,-0.02 0.09,-0.06 0,-0.02 -0.02,-0.03 -0.04,-0.05 0,0 -0.37,0.07 -0.78,0.02 0,0 -0.64,0.49 -1.22,0.42l0 0.04c0,0 -0.01,0.04 0.03,0.04 1.15,0.06 0.91,0.14 1.92,-0.41z"/>
     <path class="lmb_hrc_fil28" style="mask:url(#id126)" d="M21.33 9.2c0.58,0.04 1.68,0.12 1.99,0.46 0,0 -0.42,0.06 -0.78,0.02 0,0 -0.7,-0.42 -1.39,-0.39l0.18 -0.09z"/>
     <path class="lmb_hrc_fil28" style="mask:url(#id128)" d="M21.18 10.67c0,0 -0.04,0.18 0.01,0.32l0.87 -0.7c0,0 0.04,-0.05 -0.1,-0.04 -0.13,0.01 -0.22,-0.01 -0.22,-0.01l-0.56 0.43z"/>
     <path class="lmb_hrc_fil28" style="mask:url(#id130)" d="M22.43 10.5c-0.12,0.2 -0.45,0.34 -0.71,0.36 0,0 0.49,-0.32 0.8,-0.67 0,0 -0.19,0.09 -0.37,0.1l-0.92 0.71c0.45,0.12 1.11,-0.1 1.3,-0.41l-0.1 -0.09z"/>
    </g>
   </g>
  </g>
 </g>
</svg>
